# cao_co handle part (Y < 5.873)
o cao_co_handle
v 0.041317 0.084628 -0.128656
v 0.084334 0.017090 -0.061646
v 0.032311 0.015445 -0.100884
v -0.000479 -0.000000 0.000042
v 0.105991 0.015077 0.000054
v 0.085647 0.015060 0.062617
v 0.032242 0.015773 0.100696
v -0.032630 0.017882 0.098688
v -0.084083 0.019631 0.060490
v -0.104907 0.018353 -0.000540
v -0.085724 0.016440 -0.061883
v -0.033061 0.016079 -0.100290
v 0.101827 0.294502 -0.074007
v 0.037553 3.211667 -0.116062
v 0.098595 3.211723 -0.071744
v 0.038906 0.294389 -0.119231
v -0.036688 6.128944 -0.111368
v 0.036200 6.128944 -0.112900
v -0.037819 3.211604 -0.114711
v 0.095359 6.128944 -0.069480
v -0.102385 0.294416 0.073400
v -0.037395 3.211519 0.114348
v -0.098799 3.211678 0.071131
v -0.038157 0.294094 0.117402
v -0.108608 0.084763 0.078604
v -0.041975 0.084696 0.127795
v -0.038949 0.294258 -0.118060
v -0.042310 0.084634 -0.128723
v 0.097882 3.211661 0.072054
v 0.119453 6.128956 -0.000315
v 0.094917 6.128939 0.069366
v 0.122525 3.211688 0.000042
v 0.037553 3.211694 0.116355
v 0.036064 6.128933 0.112764
v -0.036632 6.128944 0.111298
v -0.095213 6.128944 0.068857
v -0.121094 3.211644 0.000313
v -0.117638 6.128944 0.000048
v -0.098012 3.211644 -0.070878
v -0.095145 6.128944 -0.068728
v 0.039037 0.294456 0.119948
v 0.100841 0.294389 0.074740
v 0.041996 0.084180 0.130969
v 0.108757 0.084650 0.079447
v 0.125593 0.294422 0.000404
v 0.136155 0.084469 0.000110
v 0.109000 0.084611 -0.079494
v -0.100880 0.294337 -0.073028
v -0.110027 0.084582 -0.079584
v -0.124550 0.294337 0.000573
v -0.135225 0.084661 0.000048
f 1 2 3
f 4 3 2
f 5 4 2
f 6 4 5
f 7 4 6
f 8 4 7
f 9 4 8
f 9 10 4
f 4 10 11
f 4 11 12
f 4 12 3
f 13 14 15
f 13 16 14
f 14 17 18
f 14 19 17
f 15 18 20
f 15 14 18
f 21 22 23
f 21 24 22
f 24 21 25
f 24 25 26
f 26 25 9
f 26 9 8
f 16 19 14
f 16 27 19
f 27 16 1
f 27 1 28
f 28 1 3
f 28 3 12
f 29 30 31
f 29 32 30
f 32 20 30
f 32 15 20
f 33 29 31
f 33 31 34
f 22 33 34
f 22 34 35
f 23 22 35
f 23 35 36
f 37 23 36
f 37 36 38
f 39 37 38
f 39 38 40
f 19 39 40
f 19 40 17
f 24 33 22
f 24 41 33
f 41 29 33
f 41 24 26
f 41 42 29
f 41 26 43
f 42 41 43
f 43 26 8
f 42 43 44
f 43 8 7
f 44 43 7
f 44 7 6
f 42 32 29
f 42 45 32
f 45 15 32
f 45 42 44
f 45 13 15
f 45 44 46
f 13 45 46
f 46 44 6
f 46 6 5
f 13 46 47
f 47 46 5
f 16 13 47
f 47 5 2
f 16 47 1
f 1 47 2
f 27 39 19
f 27 48 39
f 48 27 28
f 48 37 39
f 48 28 49
f 49 28 12
f 49 12 11
f 48 50 37
f 50 48 49
f 50 23 37
f 50 21 23
f 51 49 11
f 50 49 51
f 21 50 51
f 51 11 10
f 21 51 25
f 25 51 10
f 25 10 9
