# cao_co head part (Y >= 5.873)
o cao_co_head
v 0.357166 7.058272 0.046585
v 0.282949 7.070400 0.070866
v 0.301679 7.150151 0.042652
v -0.121468 6.668779 0.000183
v -0.112106 6.668971 -0.045590
v -0.148522 6.765258 -0.059405
v 0.125709 7.262312 0.843106
v 0.140521 7.256881 0.839067
v 0.134937 7.273373 0.839259
v 0.116386 7.273559 0.838926
v 0.111034 7.256858 0.839118
v 0.125665 7.249250 0.838258
v -0.127742 7.264660 0.843106
v -0.129163 7.248944 0.839067
v -0.114674 7.258607 0.839259
v -0.119296 7.276574 0.838926
v -0.136811 7.277423 0.839118
v -0.140375 7.261322 0.838258
v -0.378575 7.255568 0.843106
v -0.375877 7.240022 0.839067
v -0.364381 7.253107 0.839259
v -0.373495 7.269265 0.838926
v -0.390637 7.265548 0.839118
v -0.389913 7.249080 0.838258
v -0.630681 7.241341 0.843106
v -0.637311 7.255660 0.839067
v -0.645028 7.240051 0.839259
v -0.632039 7.226802 0.838926
v -0.616448 7.234823 0.839118
v -0.621415 7.250551 0.838258
v -0.881582 7.219764 0.843106
v -0.866771 7.214327 0.839067
v -0.872349 7.230824 0.839259
v -0.890899 7.231004 0.838926
v -0.896257 7.214304 0.839118
v -0.881627 7.206696 0.838258
v -1.133371 7.191263 0.843106
v -1.131956 7.206973 0.839067
v -1.146445 7.197316 0.839259
v -1.141816 7.179348 0.838926
v -1.124302 7.178500 0.839118
v -1.120738 7.194600 0.838258
v -1.381459 7.154473 0.843106
v -1.382873 7.138757 0.839067
v -1.368386 7.148419 0.839259
v -1.373007 7.166387 0.838926
v -1.390528 7.167235 0.839118
v -1.394086 7.151135 0.838258
v 0.082647 6.944215 0.054934
v -0.000488 6.947146 0.000048
v 0.019653 6.945720 0.098320
v -0.056319 6.943938 0.082191
v -0.098121 6.944209 0.019237
v -0.083836 6.944272 -0.054562
v -0.020339 6.944576 -0.095770
v 0.056074 6.945335 -0.082498
v 0.097287 6.944978 -0.019278
v 0.113439 6.926971 -0.022389
v 0.095573 6.926592 0.063930
v 0.376141 7.256356 0.843106
v 0.363242 7.265441 0.839067
v 0.364363 7.248062 0.839259
v 0.382233 7.243084 0.838926
v 0.391732 7.257832 0.839118
v 0.379569 7.268965 0.838258
v 0.626141 7.243088 0.843106
v 0.623444 7.258636 0.839067
v 0.611948 7.245550 0.839259
v 0.621067 7.229393 0.838926
v 0.638209 7.233104 0.839118
v 0.637479 7.249578 0.838258
v 0.880165 7.220804 0.843106
v 0.878751 7.205089 0.839067
v 0.893239 7.214752 0.839259
v 0.888617 7.232719 0.838926
v 0.871096 7.233568 0.839118
v 0.867538 7.217467 0.838258
v 1.130290 7.191109 0.843106
v 1.132989 7.175570 0.839067
v 1.144485 7.188649 0.839259
v 1.135365 7.204806 0.838926
v 1.118229 7.201096 0.839118
v 1.118954 7.184621 0.838258
v 1.379217 7.154446 0.843106
v 1.384654 7.169256 0.839067
v 1.368158 7.163672 0.839259
v 1.367975 7.145123 0.838926
v 1.384676 7.139771 0.839118
v 1.392280 7.154400 0.838258
v 0.152123 7.298236 -0.054653
v 0.160846 7.250251 -0.066284
v 0.147394 7.291814 -0.066120
v 0.168541 7.247615 -0.054816
v 0.125579 7.224176 -0.067178
v 0.125381 7.216511 -0.054455
v 0.090199 7.250200 -0.067223
v 0.082963 7.247740 -0.054653
v 0.103521 7.292414 -0.066646
v 0.099319 7.298366 -0.054737
v -0.086206 7.248446 -0.054653
v -0.130299 7.227594 -0.066284
v -0.093640 7.251348 -0.066120
v -0.130859 7.219487 -0.054816
v -0.164617 7.254913 -0.067178
v -0.172073 7.253125 -0.054455
v -0.148635 7.295820 -0.067223
v -0.152884 7.302179 -0.054653
v -0.104411 7.293880 -0.066646
v -0.099751 7.299480 -0.054737
v -0.334256 7.250658 -0.054653
v -0.371453 7.219108 -0.066284
v -0.342188 7.251541 -0.066120
v -0.369891 7.211125 -0.054816
v -0.411664 7.236611 -0.067178
v -0.418408 7.232951 -0.054455
v -0.406822 7.280262 -0.067223
v -0.412570 7.285303 -0.054653
v -0.363601 7.289834 -0.066646
v -0.360545 7.296448 -0.054737
v -0.674757 7.234620 -0.054653
v -0.647002 7.274718 -0.066284
v -0.666871 7.235819 -0.066120
v -0.650572 7.282022 -0.054816
v -0.603622 7.268225 -0.067178
v -0.598061 7.273496 -0.054455
v -0.597003 7.224799 -0.067223
v -0.590146 7.221421 -0.054653
v -0.636277 7.204370 -0.066646
v -0.637515 7.197192 -0.054737
v -0.855167 7.255687 -0.054653
v -0.846439 7.207697 -0.066284
v -0.859897 7.249261 -0.066120
v -0.838750 7.205060 -0.054816
v -0.881707 7.181622 -0.067178
v -0.881909 7.173956 -0.054455
v -0.917092 7.207646 -0.067223
v -0.924328 7.205190 -0.054653
v -0.903770 7.249860 -0.066646
v -0.907967 7.255812 -0.054737
v -1.174906 7.207476 -0.054653
v -1.130813 7.228324 -0.066284
v -1.167478 7.204568 -0.066120
v -1.130253 7.236436 -0.054816
v -1.096496 7.201009 -0.067178
v -1.089040 7.202797 -0.054455
v -1.112477 7.160096 -0.067223
v -1.108229 7.153744 -0.054653
v -1.156701 7.162037 -0.066646
v -1.161363 7.156442 -0.054737
v -1.339923 7.138259 -0.054653
v -1.384016 7.117406 -0.066284
v -1.347351 7.141162 -0.066120
v -1.384576 7.109293 -0.054816
v -1.418329 7.144726 -0.067178
v -1.425784 7.142932 -0.054455
v -1.402352 7.185634 -0.067223
v -1.406601 7.191992 -0.054653
v -1.358128 7.183693 -0.066646
v -1.353461 7.189294 -0.054737
v 0.047781 6.157790 -0.148433
v -0.060500 6.642200 -0.142589
v 0.059803 6.642500 -0.143212
v -0.048568 6.158130 -0.147935
v 0.112935 6.668502 0.046550
v 0.086963 6.668411 0.086400
v 0.311439 7.150106 0.049515
v 0.298483 7.190572 0.038443
v 0.355847 7.057434 -0.043616
v 0.304147 7.150774 -0.004308
v 0.294257 7.070220 -0.057402
v 0.398391 7.103852 -0.012545
v -0.301682 7.150146 0.041504
v -0.399049 7.103580 -0.011736
v -0.305059 7.150672 -0.003426
v -0.387287 7.100191 0.029058
v -0.356398 7.057253 -0.042812
v -0.295034 7.070044 -0.056792
v 0.341331 7.228493 -0.054653
v 0.345320 7.277106 -0.066284
v 0.347560 7.233478 -0.066120
v 0.338576 7.281643 -0.054816
v 0.386137 7.293162 -0.067178
v 0.388316 7.300516 -0.054455
v 0.413575 7.258867 -0.067223
v 0.421207 7.259371 -0.054653
v 0.389786 7.221540 -0.066646
v 0.392297 7.214701 -0.054737
v 0.581828 7.248000 -0.054653
v 0.619019 7.279550 -0.066284
v 0.589754 7.247117 -0.066120
v 0.617457 7.287533 -0.054816
v 0.659237 7.262046 -0.067178
v 0.665974 7.265707 -0.054455
v 0.654388 7.218395 -0.067223
v 0.660136 7.213355 -0.054653
v 0.611173 7.208822 -0.066646
v 0.608111 7.202209 -0.054737
v 0.921701 7.204591 -0.054653
v 0.877607 7.183739 -0.066284
v 0.914273 7.207494 -0.066120
v 0.877048 7.175632 -0.054816
v 0.843296 7.211058 -0.067178
v 0.835840 7.209270 -0.054455
v 0.859273 7.251971 -0.067223
v 0.855025 7.258324 -0.054653
v 0.903496 7.250030 -0.066646
v 0.908163 7.255626 -0.054737
v 1.174610 7.186199 -0.054653
v 1.137413 7.154648 -0.066285
v 1.166678 7.187082 -0.066120
v 1.138975 7.146672 -0.054816
v 1.097195 7.172153 -0.067178
v 1.090457 7.168493 -0.054455
v 1.102043 7.215804 -0.067223
v 1.096295 7.220845 -0.054653
v 1.145265 7.225376 -0.066646
v 1.148320 7.231990 -0.054737
v 1.343294 7.180860 -0.054653
v 1.391278 7.189583 -0.066285
v 1.349720 7.176130 -0.066120
v 1.393921 7.197277 -0.054816
v 1.417353 7.154315 -0.067178
v 1.425019 7.154118 -0.054455
v 1.391335 7.118934 -0.067223
v 1.393790 7.111693 -0.054653
v 1.349120 7.132258 -0.066646
v 1.343163 7.128054 -0.054737
v -0.117638 6.128944 0.000048
v -0.095213 6.128944 0.068857
v -0.126112 6.158278 0.091316
v -0.155231 6.158476 0.000008
v -0.112456 6.645906 0.110246
v -0.159831 6.647123 0.000121
v -0.198560 6.741899 0.060982
v -0.213592 6.740162 0.000115
v -0.297043 6.847577 0.059109
v -0.319078 6.840619 0.000613
v -0.349163 6.918904 0.062413
v -0.378507 6.908303 -0.005706
v -0.422923 7.028666 0.051195
v -0.448958 7.018664 0.000788
v -0.459214 7.150196 0.047280
v -0.469493 7.150253 0.037369
v -0.472430 7.181984 0.037634
v -0.472390 7.172446 0.028470
v -0.468939 7.149653 -0.003545
v -0.312578 7.149976 -0.013920
v -0.317443 7.185724 -0.011788
v -0.299452 7.182374 0.002826
v 0.103618 7.293031 0.737734
v 0.147728 7.293133 0.737757
v 0.090663 7.250195 0.737514
v 0.125669 7.224584 0.737174
v 0.160672 7.250212 0.737428
v -0.103790 7.293948 0.737734
v -0.092277 7.251365 0.737757
v -0.148528 7.295380 0.737514
v -0.164198 7.254935 0.737174
v -0.130390 7.227757 0.737428
v -0.363017 7.290061 0.737734
v -0.340875 7.251908 0.737757
v -0.406595 7.279861 0.737514
v -0.411268 7.236742 0.737174
v -0.371577 7.219243 0.737428
v -0.636779 7.204003 0.737734
v -0.668042 7.235123 0.737757
v -0.597326 7.225133 0.737514
v -0.603973 7.267992 0.737174
v -0.646844 7.274622 0.737428
v -0.903674 7.250483 0.737734
v -0.859563 7.250579 0.737757
v -0.916628 7.207640 0.737514
v -0.881621 7.182036 0.737174
v -0.846620 7.207657 0.737428
v -1.157324 7.161968 0.737734
v -1.168835 7.204552 0.737757
v -1.112591 7.160543 0.737514
v -1.096915 7.200988 0.737174
v -1.130728 7.228164 0.737428
v -1.357507 7.183760 0.737734
v -1.345994 7.141178 0.737757
v -1.402239 7.185192 0.737514
v -1.417909 7.144748 0.737174
v -1.384101 7.117571 0.737428
v 0.036200 6.128944 -0.112900
v -0.036688 6.128944 -0.111368
v 0.095359 6.128944 -0.069480
v 0.126604 6.157112 -0.092229
v 0.119453 6.128956 -0.000315
v 0.156254 6.157592 0.000064
v 0.112364 6.645997 -0.111090
v 0.160909 6.646852 -0.000015
v 0.198977 6.740644 -0.061566
v 0.213896 6.738952 0.000127
v 0.317565 6.841134 0.000664
v 0.297832 6.847600 -0.060078
v 0.362399 6.919872 -0.004484
v 0.421467 7.028503 -0.050517
v 0.449618 7.017935 0.000709
v 0.470047 7.149965 -0.003714
v -0.136505 6.774020 -0.086237
v -0.086779 6.668903 -0.085457
v -0.112541 6.645862 -0.110088
v -0.159237 6.742522 -0.102423
v -0.217671 6.901627 -0.091787
v -0.248350 6.860209 -0.102123
v -0.365587 7.040852 -0.080535
v -0.287872 7.071554 -0.078532
v -0.297733 6.848506 -0.059264
v -0.421559 7.028831 -0.049493
v -0.453891 7.185559 -0.011901
v -0.424903 7.150728 -0.016534
v -0.459944 7.150106 -0.014622
v 1.491095 7.067198 0.026710
v 1.478333 7.063380 0.003459
v 1.487464 7.070010 0.004358
v 1.480370 7.058894 0.026586
v 1.369555 7.079792 0.001219
v 1.369136 7.075696 0.028560
v 1.122359 7.116508 0.001959
v 1.121918 7.112039 0.028419
v 0.874282 7.145592 0.002055
v 0.873710 7.140947 0.028515
v 0.625264 7.167259 0.002214
v 0.624790 7.162795 0.028543
v 0.471427 7.172543 0.028459
v 0.471500 7.174590 0.003674
v 1.394123 7.230547 0.028430
v 1.508119 7.209558 0.028243
v 1.505618 7.206821 0.003249
v 1.393439 7.226671 0.001354
v 1.142347 7.267274 0.028453
v 1.141882 7.262743 0.001734
v 0.889647 7.296964 0.028340
v 0.889262 7.292833 0.001134
v 0.636178 7.319156 0.028278
v 0.635860 7.314512 0.000658
v 0.435599 7.326778 0.000444
v 0.435633 7.331568 0.028526
v 0.321915 7.331936 0.000150
v 0.321927 7.336343 0.028696
v 0.127837 7.341288 0.028407
v 0.127639 7.336870 0.001150
v -0.128608 7.336853 0.001173
v -0.128806 7.341338 0.028413
v -0.322886 7.331868 0.000246
v -0.322897 7.336180 0.028651
v -0.436568 7.326766 0.000460
v -0.436585 7.331280 0.028441
v -0.637136 7.318975 0.028255
v -0.636819 7.314376 0.000771
v -0.890231 7.292850 0.001117
v -0.890594 7.296743 0.028261
v -1.142841 7.262612 0.001898
v -1.143277 7.266985 0.028430
v -1.394380 7.226490 0.001575
v -1.395065 7.230377 0.028384
v -1.506383 7.206418 0.003685
v -1.507640 7.208754 0.027649
v -0.126776 7.188796 0.001196
v -0.299446 7.180146 0.028476
v -0.126532 7.184802 0.028515
v 0.125805 7.188881 0.001298
v 0.125557 7.184660 0.028555
v 0.298478 7.180169 0.028476
v 0.298489 7.182472 0.002926
v -1.370518 7.079723 0.001134
v -1.481000 7.059277 0.026302
v -1.479160 7.063639 0.003912
v -1.370054 7.075384 0.028639
v -1.123318 7.116428 0.001863
v -1.122860 7.111852 0.028447
v -0.875246 7.145557 0.002016
v -0.874657 7.140726 0.028532
v -0.626229 7.167168 0.002101
v -0.625742 7.162552 0.028566
v -0.472475 7.174601 0.003691
v 0.047192 6.642110 0.146277
v 0.112251 6.646064 0.111236
v 0.046654 6.668473 0.110840
v 0.022605 6.927356 0.111762
v -0.000488 6.664632 0.122290
v 0.316485 7.185713 -0.011544
v 0.311829 7.149682 -0.013383
v -0.282814 7.070299 0.069190
v -0.287453 7.073930 0.083068
v -0.217613 6.901711 0.091747
v -0.312407 7.150106 0.049599
v -0.299452 7.190556 0.038478
v 0.389531 7.220969 0.737734
v 0.346898 7.232290 0.737757
v 0.413133 7.258997 0.737514
v 0.385945 7.292788 0.737174
v 0.345506 7.277095 0.737428
v 0.610585 7.208597 0.737734
v 0.588447 7.246750 0.737757
v 0.654167 7.218797 0.737514
v 0.658835 7.261916 0.737174
v 0.619144 7.279415 0.737428
v 0.904118 7.250099 0.737734
v 0.915631 7.207511 0.737757
v 0.859387 7.251524 0.737514
v 0.843715 7.211081 0.737174
v 0.877523 7.183903 0.737428
v 1.145848 7.225602 0.737734
v 1.167991 7.187449 0.737757
v 1.102270 7.215403 0.737514
v 1.097597 7.172282 0.737174
v 1.137289 7.154784 0.737428
v 1.348498 7.132354 0.737734
v 1.348402 7.176463 0.737757
v 1.391341 7.119394 0.737514
v 1.416946 7.154406 0.737174
v 1.391324 7.189408 0.737428
v 1.509929 7.199449 0.003193
v 1.513961 7.198622 0.026286
v -1.509399 7.199047 0.004093
v -1.513540 7.198470 0.025414
v -1.491217 7.067956 0.025810
v -1.487511 7.070434 0.005314
v 0.122620 6.668440 0.000048
v 0.112795 6.668564 -0.046382
v 0.064951 6.927661 -0.096556
v 0.087008 6.668400 -0.086322
v 0.046106 6.668462 -0.109557
v -0.000482 6.664898 -0.123100
v -0.023241 6.927050 -0.111746
v -0.096045 6.926479 -0.063184
v -0.047177 6.668462 -0.109811
v 0.405796 7.041294 0.000828
v 0.277172 6.863554 -0.001491
v 0.258871 6.879608 -0.048803
v 0.173327 6.761134 0.000070
v 0.286931 7.071448 -0.078323
v 0.217589 6.901242 -0.090566
v 0.230036 6.896371 -0.071433
v 0.136798 6.773269 -0.086056
v 0.148447 6.764630 -0.060260
v 0.386651 7.100231 0.029856
v -0.172859 6.762497 0.000008
v -0.230485 6.896734 -0.070539
v -0.259240 6.880123 -0.048045
v -0.277321 6.864346 -0.001457
v -0.405109 7.042255 0.000936
v -0.036632 6.128944 0.111298
v 0.036064 6.128933 0.112764
v 0.047475 6.158278 0.147538
v -0.048580 6.158147 0.148076
v -0.047794 6.641963 0.145677
v 0.094917 6.128939 0.069366
v 0.126269 6.157610 0.092182
v 0.198711 6.740971 0.061531
v 0.136979 6.773218 0.085320
v 0.158453 6.744264 0.103791
v 0.217448 6.901315 0.090728
v 0.294975 6.848506 0.058198
v 0.246741 6.860532 0.102501
v 0.286484 7.073930 0.083062
v 0.336279 6.927062 0.050035
v 0.364384 7.044524 0.084007
v 0.423860 7.150157 0.050364
v 0.422728 7.028356 0.052117
v 0.458651 7.150190 0.048355
v 0.470443 7.150196 0.038580
v 0.471460 7.181917 0.037742
v -0.095145 6.128944 -0.068728
v -0.126651 6.157865 -0.091606
v -0.198820 6.741538 -0.061012
v 0.158420 6.742516 -0.102994
v 0.247516 6.860096 -0.102632
v 0.364780 7.041017 -0.081112
v 0.423933 7.150688 -0.016449
v 0.459110 7.150202 -0.014944
v 0.452905 7.185560 -0.011595
v -0.424829 7.150157 0.050149
v -0.365083 7.044439 0.083250
v -0.247615 6.860611 0.102060
v -0.159117 6.744468 0.103083
v -0.136415 6.774049 0.085528
v -0.086677 6.668654 0.085342
v -0.428541 7.303888 -0.008733
v -0.379899 7.258828 -0.011732
v -0.330166 7.305184 -0.010198
v 0.329457 7.304906 -0.009479
v 0.378923 7.258828 -0.011471
v 0.427922 7.304346 -0.009129
v 0.257547 6.879863 0.048157
v 0.229963 6.896423 0.071448
v 0.160519 6.766084 0.046550
v -0.357711 7.058191 0.045702
v -0.258675 6.879733 0.048394
v -0.230456 6.896750 0.070628
v -0.160351 6.766882 0.045860
v -0.112129 6.668852 0.045730
v -0.113011 6.926248 0.022603
v -0.046748 6.668496 0.108894
v -0.063991 6.926519 0.093144
v 0.625537 7.173646 0.038296
v 0.874791 7.151532 0.038517
v 0.436000 7.320379 0.038098
v 1.123316 7.122623 0.038098
v 0.888623 7.286860 0.038970
v 1.370816 7.086089 0.038601
v 1.141011 7.256933 0.038580
v 1.481681 7.069376 0.034461
v 1.505685 7.200179 0.035750
v 1.392489 7.220426 0.038857
v 0.635443 7.309081 0.039026
v 0.321910 7.325550 0.038980
v 0.429800 7.307152 0.047496
v 0.127684 7.331111 0.038890
v 0.453028 7.185684 0.049628
v 0.378964 7.258788 0.049147
v 0.316327 7.185667 0.049124
v 0.327573 7.307310 0.046500
v 0.125704 7.195087 0.038403
v -0.128654 7.331128 0.038913
v -0.126674 7.195081 0.038432
v -0.322947 7.325470 0.038466
v -0.317295 7.185673 0.049220
v -0.436981 7.320520 0.038953
v -0.453851 7.185696 0.048553
v -0.328401 7.307462 0.046833
v -0.379928 7.258788 0.048892
v -0.429683 7.305840 0.046318
v -0.636412 7.309042 0.038930
v -0.889575 7.286701 0.038630
v -0.626506 7.173623 0.038325
v -0.875749 7.151407 0.038682
v -1.141981 7.256881 0.038511
v -1.124284 7.122644 0.038053
v -1.393430 7.220204 0.038534
v -1.371779 7.086054 0.038659
v -1.506571 7.200048 0.035508
v -1.482351 7.069591 0.034099
v 0.125427 7.261775 -0.066692
v -0.128337 7.264790 -0.066692
v -0.379180 7.255541 -0.066692
v -0.630104 7.241527 -0.066692
v -0.881859 7.219220 -0.066692
v -1.132777 7.191127 -0.066692
v -1.382053 7.154603 -0.066692
v 0.376553 7.256802 -0.066692
v 0.626747 7.243117 -0.066692
v 0.879577 7.220935 -0.066692
v 1.129685 7.191088 -0.066692
v 1.379755 7.154162 -0.066692
f 1 2 3
f 4 5 6
f 7 8 9
f 10 7 9
f 11 7 10
f 12 7 11
f 12 8 7
f 13 14 15
f 16 13 15
f 17 13 16
f 18 13 17
f 18 14 13
f 19 20 21
f 22 19 21
f 23 19 22
f 24 19 23
f 24 20 19
f 25 26 27
f 28 25 27
f 29 25 28
f 30 25 29
f 30 26 25
f 31 32 33
f 34 31 33
f 35 31 34
f 36 31 35
f 36 32 31
f 37 38 39
f 40 37 39
f 41 37 40
f 42 37 41
f 42 38 37
f 43 44 45
f 46 43 45
f 47 43 46
f 48 43 47
f 48 44 43
f 49 50 51
f 52 51 50
f 53 52 50
f 54 53 50
f 55 54 50
f 55 50 56
f 56 50 57
f 57 50 49
f 58 57 49
f 58 49 59
f 60 61 62
f 63 60 62
f 64 60 63
f 65 60 64
f 65 61 60
f 66 67 68
f 69 66 68
f 70 66 69
f 71 66 70
f 71 67 66
f 72 73 74
f 75 72 74
f 76 72 75
f 77 72 76
f 77 73 72
f 78 79 80
f 81 78 80
f 82 78 81
f 83 78 82
f 83 79 78
f 84 85 86
f 87 84 86
f 88 84 87
f 89 84 88
f 89 85 84
f 90 91 92
f 90 93 91
f 93 94 91
f 93 95 94
f 95 96 94
f 95 97 96
f 97 98 96
f 97 99 98
f 99 92 98
f 99 90 92
f 100 101 102
f 100 103 101
f 103 104 101
f 103 105 104
f 105 106 104
f 105 107 106
f 107 108 106
f 107 109 108
f 109 102 108
f 109 100 102
f 110 111 112
f 110 113 111
f 113 114 111
f 113 115 114
f 115 116 114
f 115 117 116
f 117 118 116
f 117 119 118
f 119 112 118
f 119 110 112
f 120 121 122
f 120 123 121
f 123 124 121
f 123 125 124
f 125 126 124
f 125 127 126
f 127 128 126
f 127 129 128
f 129 122 128
f 129 120 122
f 130 131 132
f 130 133 131
f 133 134 131
f 133 135 134
f 135 136 134
f 135 137 136
f 137 138 136
f 137 139 138
f 139 132 138
f 139 130 132
f 140 141 142
f 140 143 141
f 143 144 141
f 143 145 144
f 145 146 144
f 145 147 146
f 147 148 146
f 147 149 148
f 149 142 148
f 149 140 142
f 150 151 152
f 150 153 151
f 153 154 151
f 153 155 154
f 155 156 154
f 155 157 156
f 157 158 156
f 157 159 158
f 159 152 158
f 159 150 152
f 160 161 162
f 160 163 161
f 58 59 164
f 164 59 165
f 2 166 3
f 3 166 167
f 168 169 170
f 168 171 169
f 172 173 174
f 172 175 173
f 176 174 173
f 176 177 174
f 178 179 180
f 178 181 179
f 181 182 179
f 181 183 182
f 183 184 182
f 183 185 184
f 185 186 184
f 185 187 186
f 187 180 186
f 187 178 180
f 188 189 190
f 188 191 189
f 191 192 189
f 191 193 192
f 193 194 192
f 193 195 194
f 195 196 194
f 195 197 196
f 197 190 196
f 197 188 190
f 198 199 200
f 198 201 199
f 201 202 199
f 201 203 202
f 203 204 202
f 203 205 204
f 205 206 204
f 205 207 206
f 207 200 206
f 207 198 200
f 208 209 210
f 208 211 209
f 211 212 209
f 211 213 212
f 213 214 212
f 213 215 214
f 215 216 214
f 215 217 216
f 217 210 216
f 217 208 210
f 218 219 220
f 218 221 219
f 221 222 219
f 221 223 222
f 223 224 222
f 223 225 224
f 225 226 224
f 225 227 226
f 227 220 226
f 227 218 220
f 228 229 230
f 228 230 231
f 231 230 232
f 231 232 233
f 233 232 234
f 233 234 235
f 236 235 234
f 236 237 235
f 238 237 236
f 238 239 237
f 240 239 238
f 240 241 239
f 242 241 240
f 242 243 241
f 244 243 242
f 244 245 243
f 245 246 243
f 177 247 174
f 174 247 248
f 174 248 249
f 250 90 99
f 250 251 90
f 251 250 10
f 251 10 9
f 252 99 97
f 252 250 99
f 250 252 11
f 250 11 10
f 253 97 95
f 253 252 97
f 252 253 12
f 252 12 11
f 254 95 93
f 254 253 95
f 253 254 8
f 253 8 12
f 251 93 90
f 251 254 93
f 254 251 9
f 254 9 8
f 255 100 109
f 255 256 100
f 256 255 16
f 256 16 15
f 257 109 107
f 257 255 109
f 255 257 17
f 255 17 16
f 258 107 105
f 258 257 107
f 257 258 18
f 257 18 17
f 259 105 103
f 259 258 105
f 258 259 14
f 258 14 18
f 256 103 100
f 256 259 103
f 259 256 15
f 259 15 14
f 260 110 119
f 260 261 110
f 261 260 22
f 261 22 21
f 262 119 117
f 262 260 119
f 260 262 23
f 260 23 22
f 263 117 115
f 263 262 117
f 262 263 24
f 262 24 23
f 264 115 113
f 264 263 115
f 263 264 20
f 263 20 24
f 261 113 110
f 261 264 113
f 264 261 21
f 264 21 20
f 265 120 129
f 265 266 120
f 266 265 28
f 266 28 27
f 267 129 127
f 267 265 129
f 265 267 29
f 265 29 28
f 268 127 125
f 268 267 127
f 267 268 30
f 267 30 29
f 269 125 123
f 269 268 125
f 268 269 26
f 268 26 30
f 266 123 120
f 266 269 123
f 269 266 27
f 269 27 26
f 270 130 139
f 270 271 130
f 271 270 34
f 271 34 33
f 272 139 137
f 272 270 139
f 270 272 35
f 270 35 34
f 273 137 135
f 273 272 137
f 272 273 36
f 272 36 35
f 274 135 133
f 274 273 135
f 273 274 32
f 273 32 36
f 271 133 130
f 271 274 133
f 274 271 33
f 274 33 32
f 275 140 149
f 275 276 140
f 276 275 40
f 276 40 39
f 277 149 147
f 277 275 149
f 275 277 41
f 275 41 40
f 278 147 145
f 278 277 147
f 277 278 42
f 277 42 41
f 279 145 143
f 279 278 145
f 278 279 38
f 278 38 42
f 276 143 140
f 276 279 143
f 279 276 39
f 279 39 38
f 280 150 159
f 280 281 150
f 281 280 46
f 281 46 45
f 282 159 157
f 282 280 159
f 280 282 47
f 280 47 46
f 283 157 155
f 283 282 157
f 282 283 48
f 282 48 47
f 284 155 153
f 284 283 155
f 283 284 44
f 283 44 48
f 281 153 150
f 281 284 153
f 284 281 45
f 284 45 44
f 285 286 163
f 285 163 160
f 287 285 160
f 287 160 288
f 289 287 288
f 288 160 162
f 289 288 290
f 288 162 291
f 290 288 291
f 290 291 292
f 292 291 293
f 292 293 294
f 293 295 294
f 293 296 295
f 296 297 295
f 296 298 297
f 297 298 299
f 298 300 299
f 301 302 303
f 301 303 304
f 305 301 304
f 305 304 306
f 305 306 307
f 305 307 308
f 307 306 309
f 247 308 307
f 307 309 310
f 311 248 247
f 312 307 310
f 247 307 312
f 311 247 312
f 312 310 313
f 312 313 311
f 314 315 316
f 314 317 315
f 318 315 317
f 318 317 319
f 320 318 319
f 320 319 321
f 322 320 321
f 322 321 323
f 324 322 323
f 324 323 325
f 324 325 326
f 324 326 327
f 328 329 330
f 328 330 331
f 332 328 331
f 332 331 333
f 334 332 333
f 334 333 335
f 336 334 335
f 336 335 337
f 338 336 337
f 338 339 336
f 340 339 338
f 340 341 339
f 342 341 340
f 342 340 343
f 342 343 344
f 342 344 345
f 345 344 346
f 345 346 347
f 348 347 346
f 348 349 347
f 348 350 349
f 348 351 350
f 350 351 352
f 350 352 353
f 353 352 354
f 353 354 355
f 355 354 356
f 355 356 357
f 357 356 358
f 357 358 359
f 360 361 249
f 360 362 361
f 363 362 360
f 363 364 362
f 363 365 364
f 363 366 365
f 367 368 369
f 367 370 368
f 371 370 367
f 371 372 370
f 373 372 371
f 373 374 372
f 375 374 373
f 375 376 374
f 375 245 376
f 375 377 245
f 165 378 379
f 165 380 378
f 59 380 165
f 381 382 380
f 59 381 380
f 59 51 381
f 59 49 51
f 169 366 383
f 169 383 384
f 170 169 384
f 385 386 387
f 385 388 386
f 385 172 388
f 172 389 388
f 172 361 389
f 361 172 174
f 361 174 249
f 390 178 187
f 390 391 178
f 391 390 63
f 391 63 62
f 392 187 185
f 392 390 187
f 390 392 64
f 390 64 63
f 393 185 183
f 393 392 185
f 392 393 65
f 392 65 64
f 394 183 181
f 394 393 183
f 393 394 61
f 393 61 65
f 391 181 178
f 391 394 181
f 394 391 62
f 394 62 61
f 395 188 197
f 395 396 188
f 396 395 69
f 396 69 68
f 397 197 195
f 397 395 197
f 395 397 70
f 395 70 69
f 398 195 193
f 398 397 195
f 397 398 71
f 397 71 70
f 399 193 191
f 399 398 193
f 398 399 67
f 398 67 71
f 396 191 188
f 396 399 191
f 399 396 68
f 399 68 67
f 400 198 207
f 400 401 198
f 401 400 75
f 401 75 74
f 402 207 205
f 402 400 207
f 400 402 76
f 400 76 75
f 403 205 203
f 403 402 205
f 402 403 77
f 402 77 76
f 404 203 201
f 404 403 203
f 403 404 73
f 403 73 77
f 401 201 198
f 401 404 201
f 404 401 74
f 404 74 73
f 405 208 217
f 405 406 208
f 406 405 81
f 406 81 80
f 407 217 215
f 407 405 217
f 405 407 82
f 405 82 81
f 408 215 213
f 408 407 215
f 407 408 83
f 407 83 82
f 409 213 211
f 409 408 213
f 408 409 79
f 408 79 83
f 406 211 208
f 406 409 211
f 409 406 80
f 409 80 79
f 410 218 227
f 410 411 218
f 411 410 87
f 411 87 86
f 412 227 225
f 412 410 227
f 410 412 88
f 410 88 87
f 413 225 223
f 413 412 225
f 412 413 89
f 412 89 88
f 414 223 221
f 414 413 223
f 413 414 85
f 413 85 89
f 411 221 218
f 411 414 221
f 414 411 86
f 414 86 85
f 314 316 415
f 314 415 416
f 329 416 415
f 329 415 330
f 359 358 417
f 359 417 418
f 419 418 417
f 419 417 420
f 419 420 369
f 419 369 368
f 58 164 421
f 58 421 422
f 423 58 422
f 423 422 424
f 423 424 425
f 423 57 58
f 423 56 57
f 424 291 162
f 424 162 425
f 162 426 425
f 426 423 425
f 162 161 426
f 426 427 423
f 427 56 423
f 427 55 56
f 427 54 55
f 427 428 54
f 427 302 428
f 302 161 303
f 427 429 302
f 302 429 161
f 426 429 427
f 426 161 429
f 430 171 168
f 431 430 168
f 431 168 432
f 433 431 432
f 432 168 170
f 170 384 434
f 170 434 435
f 170 435 436
f 432 170 436
f 437 436 435
f 433 432 438
f 438 432 436
f 437 438 436
f 421 433 438
f 421 438 422
f 422 438 437
f 422 437 424
f 3 171 439
f 3 169 171
f 365 169 3
f 3 167 365
f 365 366 169
f 5 302 301
f 5 301 6
f 4 6 440
f 301 441 6
f 301 305 441
f 440 6 442
f 6 441 442
f 440 442 443
f 177 441 305
f 442 441 177
f 177 305 308
f 177 308 247
f 442 177 176
f 443 442 176
f 443 176 444
f 444 176 173
f 445 446 447
f 445 447 448
f 229 445 448
f 448 447 378
f 229 448 230
f 448 378 449
f 230 448 449
f 230 449 232
f 450 289 290
f 450 290 451
f 446 450 451
f 451 290 292
f 446 451 447
f 447 451 379
f 451 292 379
f 447 379 378
f 379 292 452
f 452 292 294
f 453 165 379
f 453 379 454
f 379 452 454
f 455 453 454
f 456 452 294
f 456 294 295
f 457 454 452
f 455 454 457
f 457 452 456
f 458 455 457
f 459 456 295
f 459 457 456
f 459 295 297
f 458 457 460
f 460 457 459
f 166 458 460
f 166 460 461
f 462 459 297
f 460 459 462
f 461 460 462
f 462 297 299
f 461 462 463
f 463 462 299
f 463 299 464
f 465 463 464
f 299 300 464
f 465 464 326
f 326 464 300
f 326 300 327
f 466 228 231
f 466 231 467
f 286 466 467
f 467 231 233
f 286 467 163
f 163 467 303
f 467 233 303
f 163 303 161
f 303 233 468
f 303 468 304
f 468 233 235
f 306 304 468
f 468 235 237
f 306 468 309
f 468 237 309
f 309 237 239
f 309 239 310
f 239 241 310
f 310 241 246
f 241 243 246
f 310 246 313
f 377 313 246
f 245 377 246
f 377 311 313
f 437 291 424
f 437 469 291
f 293 291 469
f 435 469 437
f 470 293 469
f 435 470 469
f 470 296 293
f 435 471 470
f 471 296 470
f 435 434 471
f 471 298 296
f 384 471 434
f 472 298 471
f 384 472 471
f 472 473 298
f 298 473 300
f 327 300 473
f 327 473 474
f 472 474 473
f 474 472 384
f 474 384 383
f 475 242 240
f 475 240 476
f 388 475 476
f 476 240 238
f 388 476 386
f 476 238 477
f 386 476 477
f 238 236 477
f 386 477 387
f 477 236 234
f 387 477 478
f 477 234 478
f 387 478 479
f 234 232 478
f 479 478 232
f 479 232 480
f 417 358 356
f 417 356 367
f 417 367 420
f 420 367 369
f 354 367 356
f 354 371 367
f 352 371 354
f 352 373 371
f 351 373 352
f 351 375 373
f 348 375 351
f 348 377 375
f 311 377 348
f 311 348 481
f 481 348 346
f 482 311 481
f 482 248 311
f 481 483 482
f 482 483 248
f 481 346 483
f 483 249 248
f 483 346 249
f 249 346 344
f 249 344 360
f 360 344 343
f 360 343 363
f 340 363 343
f 340 366 363
f 383 366 340
f 383 340 484
f 484 340 338
f 485 383 484
f 485 474 383
f 484 486 485
f 485 486 474
f 484 338 486
f 486 327 474
f 486 338 327
f 327 338 337
f 327 337 324
f 337 322 324
f 337 335 322
f 335 320 322
f 335 333 320
f 333 318 320
f 333 331 318
f 415 331 330
f 415 318 331
f 415 316 318
f 318 316 315
f 430 439 171
f 1 439 430
f 1 3 439
f 431 1 430
f 431 487 1
f 433 487 431
f 487 2 1
f 2 458 166
f 2 455 458
f 487 488 2
f 2 488 455
f 433 489 487
f 487 489 488
f 489 455 488
f 421 489 433
f 489 453 455
f 421 164 489
f 489 165 453
f 489 164 165
f 444 173 175
f 490 444 175
f 490 175 172
f 443 444 490
f 490 172 385
f 443 490 491
f 491 490 385
f 440 443 491
f 491 385 492
f 385 387 492
f 440 491 493
f 491 492 493
f 493 492 387
f 4 440 493
f 493 387 479
f 4 493 494
f 493 479 480
f 493 480 494
f 428 302 5
f 428 5 4
f 428 4 495
f 428 495 53
f 428 53 54
f 382 378 380
f 449 378 382
f 480 232 449
f 449 382 496
f 480 449 496
f 497 496 382
f 497 480 496
f 497 382 381
f 497 381 51
f 494 480 497
f 497 51 52
f 494 497 495
f 495 497 52
f 495 4 494
f 495 52 53
f 325 465 326
f 325 498 465
f 323 498 325
f 323 499 498
f 321 499 323
f 500 465 498
f 321 501 499
f 501 321 319
f 498 499 502
f 501 319 503
f 317 503 319
f 499 501 504
f 499 504 502
f 317 505 503
f 505 317 314
f 505 314 416
f 505 416 506
f 503 505 506
f 416 329 506
f 506 329 328
f 503 506 507
f 506 328 507
f 501 503 507
f 501 507 504
f 332 507 328
f 332 504 507
f 504 332 334
f 504 334 502
f 502 334 336
f 502 336 508
f 498 502 508
f 508 336 339
f 500 498 508
f 508 339 500
f 500 339 341
f 500 341 509
f 509 341 342
f 510 500 509
f 509 342 511
f 511 342 345
f 512 500 510
f 512 465 500
f 463 465 512
f 461 463 512
f 513 512 510
f 514 461 512
f 513 514 512
f 514 166 461
f 513 510 515
f 513 515 514
f 510 509 515
f 167 166 514
f 515 167 514
f 515 509 167
f 167 509 511
f 167 511 516
f 516 365 167
f 516 364 365
f 516 511 517
f 511 345 517
f 364 516 518
f 516 517 518
f 364 518 362
f 518 361 362
f 518 389 361
f 519 517 345
f 519 518 517
f 519 389 518
f 519 345 347
f 519 347 349
f 520 389 519
f 389 520 388
f 520 475 388
f 519 349 521
f 520 522 475
f 475 522 242
f 520 519 523
f 523 519 521
f 244 242 522
f 524 520 523
f 524 522 520
f 524 523 525
f 524 525 522
f 523 521 525
f 525 244 522
f 525 521 244
f 526 521 349
f 244 521 526
f 526 349 350
f 376 245 244
f 527 526 350
f 527 350 353
f 244 526 528
f 376 244 528
f 528 526 527
f 374 376 528
f 374 528 529
f 528 527 529
f 372 374 529
f 530 527 353
f 529 527 530
f 530 353 355
f 372 529 531
f 529 530 531
f 531 370 372
f 355 532 530
f 531 530 532
f 355 357 532
f 531 533 370
f 531 532 533
f 368 370 533
f 534 532 357
f 533 532 534
f 534 357 359
f 418 534 359
f 368 533 535
f 533 534 535
f 535 534 418
f 535 419 368
f 535 418 419
f 94 536 91
f 96 536 94
f 536 92 91
f 98 536 96
f 98 92 536
f 104 537 101
f 106 537 104
f 537 102 101
f 108 537 106
f 108 102 537
f 114 538 111
f 116 538 114
f 538 112 111
f 118 538 116
f 118 112 538
f 124 539 121
f 126 539 124
f 539 122 121
f 128 539 126
f 128 122 539
f 134 540 131
f 136 540 134
f 540 132 131
f 138 540 136
f 138 132 540
f 144 541 141
f 146 541 144
f 541 142 141
f 148 541 146
f 148 142 541
f 154 542 151
f 156 542 154
f 542 152 151
f 158 542 156
f 158 152 542
f 182 543 179
f 184 543 182
f 543 180 179
f 186 543 184
f 186 180 543
f 192 544 189
f 194 544 192
f 544 190 189
f 196 544 194
f 196 190 544
f 202 545 199
f 204 545 202
f 545 200 199
f 206 545 204
f 206 200 545
f 212 546 209
f 214 546 212
f 546 210 209
f 216 546 214
f 216 210 546
f 222 547 219
f 224 547 222
f 547 220 219
f 226 547 224
f 226 220 547
