# hoe head part (Y >= 5.450)
o hoe_head
v -0.232951 7.183008 0.068967
v -0.193118 7.254968 0.078308
v -0.240006 7.230377 0.120262
v -0.148381 7.125535 0.053800
v -0.090326 7.049248 -0.000436
v -0.073111 7.055210 0.060572
v -0.162134 7.102997 -0.000119
v -0.073241 7.055176 -0.061467
v -0.148907 7.124914 -0.054435
v -1.834640 7.042204 -0.440975
v -1.812911 7.047505 -0.500308
v -1.810812 7.041440 -0.499664
v -1.835405 7.046147 -0.440901
v -1.825476 7.041847 -0.349831
v -1.827496 7.047425 -0.349796
v -1.815095 7.040716 -0.254278
v -1.817239 7.047499 -0.254318
v -1.818704 7.041830 -0.227497
v -1.821047 7.047505 -0.227786
v -1.834386 7.042945 -0.191375
v -1.835230 7.046543 -0.191811
v -1.835530 7.045932 -0.000505
v -1.834511 7.042170 -0.000544
v -1.834776 7.046051 0.384971
v -1.833464 7.042566 0.385029
v -1.806354 7.040722 0.456995
v -1.808686 7.052206 0.457035
v -1.800012 7.055974 0.498496
v -1.798565 7.043098 0.500132
v -0.012764 6.985666 0.112981
v -0.058860 6.984703 0.053415
v -0.037770 6.982667 0.044771
v 0.002459 6.983323 0.092389
v 0.069300 6.985105 0.139949
v 0.069605 6.982978 0.113512
v 0.151546 6.984799 0.113354
v 0.138301 6.982921 0.094481
v 0.202642 6.984392 0.043442
v 0.182202 6.982904 0.036681
v 0.202370 6.984828 -0.043126
v 0.183073 6.982898 -0.036717
v 0.151771 6.984178 -0.113536
v 0.138986 6.982904 -0.095291
v 0.069288 6.985337 -0.139561
v 0.069746 6.982944 -0.115579
v -0.012866 6.985150 -0.112954
v 0.001202 6.982910 -0.094211
v -0.058120 6.985229 -0.054356
v -0.037612 6.983226 -0.045746
v -0.243367 7.139872 -0.000611
v -0.233212 7.182244 -0.069037
v -0.967980 7.136087 0.096626
v -0.239684 7.266894 0.179330
v -0.260011 7.333752 0.499255
v -0.968760 7.193633 0.501868
v -0.967985 7.136110 -0.097663
v -0.239266 7.229867 -0.120501
v -0.239593 7.267036 -0.180242
v -0.968681 7.193429 -0.502622
v -0.260016 7.333633 -0.500127
v -0.968314 7.116761 -0.000374
v -1.454024 7.090404 -0.282979
v -1.456004 7.101746 -0.501553
v -1.778809 7.043108 -0.499901
v -1.453589 7.083128 -0.000532
v -1.776196 7.035262 -0.424478
v -1.776314 7.034392 -0.239638
v -1.776337 7.034300 -0.000544
v -1.453939 7.090331 0.281919
v -1.456090 7.101940 0.500753
v -1.776677 7.036745 0.385571
v -1.777700 7.044416 0.499271
v -0.193487 7.254940 -0.079599
v -0.069253 7.284172 -0.058447
v -0.206006 7.312271 -0.058232
v -0.017291 6.998382 -0.118804
v -0.015656 7.277150 -0.116654
v -0.065473 6.998840 -0.057518
v -0.065575 6.998134 0.056222
v 0.069000 6.998456 -0.146914
v 0.069146 7.276750 -0.142604
v 0.156421 6.998417 -0.120093
v 0.153526 7.277513 -0.115874
v -0.967142 7.228300 -0.502396
v -0.240108 7.326160 -0.177701
v -0.251802 7.364934 -0.500585
v -0.968003 7.216092 -0.240135
v -1.463036 7.133303 -0.503205
v -1.462477 7.134943 -0.282854
v -1.782373 7.066417 -0.502475
v -0.967912 7.208177 -0.000515
v -0.205260 7.313125 -0.000363
v -1.783436 7.072328 -0.424676
v -1.783924 7.073947 -0.239672
v -1.784026 7.074298 -0.000509
v -1.462313 7.133705 -0.000521
v -1.784132 7.074587 0.385561
v -1.783346 7.073172 0.503679
v -1.463036 7.133281 0.502208
v -1.462517 7.135222 0.281823
v -0.968104 7.216709 0.239071
v -0.967103 7.228170 0.501376
v -0.251598 7.365500 0.499142
v -0.239814 7.326018 0.176687
v -0.205933 7.312214 0.057335
v -0.080210 7.286756 -0.000482
v -0.069337 7.283182 0.057335
v 0.065622 7.292567 -0.000267
v -0.014156 7.275635 0.115063
v 0.069006 7.277575 0.142286
v 0.153746 7.277942 0.116121
v 0.205799 7.277767 0.044211
v 0.204576 7.277586 -0.044048
v -0.247474 7.352149 0.501670
v -0.229433 7.301347 0.176681
v -0.016601 6.998321 0.118141
v 0.069073 6.998382 0.146987
v 0.155754 6.998444 0.119464
v 0.210409 6.998376 0.046043
v -0.247457 7.352591 -0.502657
v -0.229428 7.301312 -0.177741
v 0.210851 6.998450 -0.045887
v -0.967945 7.211124 -0.507194
v -1.458851 7.116467 -0.507194
v -1.780529 7.054446 -0.507176
v -0.967453 7.211238 0.506162
v -1.458856 7.116467 0.506162
v -1.780523 7.054446 0.506145
v 0.183740 4.973942 -0.036670
v 0.138086 4.973953 -0.085759
v 0.069894 4.974022 -0.086896
v 0.001571 4.974236 -0.085550
v -0.039133 4.974547 -0.046435
v 0.137572 4.973885 0.084854
v 0.183424 4.973947 0.036608
v -0.039365 4.973744 0.044879
v 0.002431 4.974224 0.084679
v 0.069622 4.974005 0.085900
f 1 2 3
f 4 5 6
f 7 8 5
f 7 9 8
f 10 11 12
f 10 13 11
f 14 13 10
f 14 15 13
f 16 15 14
f 16 17 15
f 18 17 16
f 18 19 17
f 20 19 18
f 20 21 19
f 20 22 21
f 20 23 22
f 23 24 22
f 23 25 24
f 26 24 25
f 26 27 24
f 26 28 27
f 26 29 28
f 30 31 32
f 30 32 33
f 34 30 33
f 34 33 35
f 36 34 35
f 36 35 37
f 38 36 37
f 38 37 39
f 40 38 39
f 40 39 41
f 42 40 41
f 42 41 43
f 44 42 43
f 44 43 45
f 46 44 45
f 46 45 47
f 48 46 47
f 48 47 49
f 31 48 49
f 31 49 32
f 4 7 5
f 1 7 4
f 1 50 7
f 50 9 7
f 50 51 9
f 50 1 52
f 1 3 52
f 52 3 53
f 53 54 55
f 53 55 52
f 50 56 51
f 51 56 57
f 57 56 58
f 58 59 60
f 58 56 59
f 50 61 56
f 50 52 61
f 59 56 62
f 59 62 63
f 62 64 63
f 56 61 65
f 56 65 62
f 52 65 61
f 62 66 64
f 66 12 64
f 66 10 12
f 66 14 10
f 62 67 66
f 67 14 66
f 67 62 65
f 67 16 14
f 67 18 16
f 67 20 18
f 20 67 68
f 67 65 68
f 20 68 23
f 52 69 65
f 68 65 69
f 55 69 52
f 55 70 69
f 23 68 71
f 68 69 71
f 71 69 70
f 23 71 25
f 71 70 72
f 26 25 71
f 26 71 72
f 26 72 29
f 73 9 51
f 73 8 9
f 74 73 75
f 73 74 8
f 74 76 8
f 74 77 76
f 8 76 78
f 78 5 8
f 6 5 79
f 79 5 78
f 79 48 31
f 79 78 48
f 78 46 48
f 78 76 46
f 76 44 46
f 76 80 44
f 77 80 76
f 80 42 44
f 77 81 80
f 80 82 42
f 81 82 80
f 81 83 82
f 84 85 86
f 84 87 85
f 88 87 84
f 85 87 75
f 88 89 87
f 90 89 88
f 75 87 91
f 89 91 87
f 75 91 92
f 90 93 89
f 11 93 90
f 11 13 93
f 93 13 15
f 93 15 17
f 93 17 94
f 89 93 94
f 94 17 19
f 94 19 21
f 22 94 21
f 22 95 94
f 95 89 94
f 24 95 22
f 95 96 89
f 89 96 91
f 24 97 95
f 97 96 95
f 24 27 97
f 98 27 28
f 97 27 98
f 99 97 98
f 97 100 96
f 99 100 97
f 96 100 101
f 99 101 100
f 96 101 91
f 99 102 101
f 103 101 102
f 103 104 101
f 104 105 101
f 105 91 101
f 105 92 91
f 105 106 92
f 75 92 106
f 105 107 106
f 75 106 74
f 107 108 106
f 106 108 74
f 109 108 107
f 74 108 77
f 109 110 108
f 77 108 81
f 108 110 111
f 81 108 83
f 108 111 112
f 108 113 83
f 108 112 113
f 114 54 53
f 114 53 115
f 103 114 115
f 3 115 53
f 103 115 104
f 3 2 115
f 2 104 115
f 2 105 104
f 4 2 1
f 107 2 4
f 2 107 105
f 107 4 6
f 109 107 6
f 109 6 116
f 116 6 79
f 116 79 31
f 110 109 116
f 116 31 30
f 110 116 117
f 117 116 30
f 111 110 117
f 117 30 34
f 111 117 118
f 118 117 34
f 112 111 118
f 118 34 36
f 112 118 119
f 119 118 36
f 119 36 38
f 120 58 60
f 120 121 58
f 86 121 120
f 57 58 121
f 86 85 121
f 57 121 73
f 85 73 121
f 51 57 73
f 85 75 73
f 113 112 119
f 113 119 122
f 83 113 122
f 122 119 38
f 83 122 82
f 122 38 40
f 82 122 40
f 82 40 42
f 59 120 60
f 59 123 120
f 123 59 63
f 120 84 86
f 120 123 84
f 123 63 124
f 84 123 124
f 84 124 88
f 64 124 63
f 124 90 88
f 64 125 124
f 124 125 90
f 12 125 64
f 125 11 90
f 12 11 125
f 54 114 126
f 126 114 103
f 126 103 102
f 54 126 55
f 126 102 99
f 55 126 127
f 126 99 127
f 55 127 70
f 128 127 99
f 70 127 128
f 128 99 98
f 70 128 72
f 28 128 98
f 29 72 128
f 29 128 28
f 43 41 129
f 43 129 130
f 45 43 130
f 45 130 131
f 47 45 131
f 47 131 132
f 49 47 132
f 49 132 133
f 39 37 134
f 39 134 135
f 41 39 135
f 41 135 129
f 33 32 136
f 33 136 137
f 35 33 137
f 35 137 138
f 37 35 138
f 37 138 134
f 32 133 136
f 32 49 133
