# hoe handle part (Y < 5.450)
o hoe_handle
v -0.179054 0.118316 -0.036590
v -0.186709 0.143356 -0.047695
v -0.147594 0.123650 -0.070001
v 0.037964 0.036467 -0.067456
v -0.150293 0.104670 -0.051383
v 0.025433 0.020111 -0.048046
v -0.180152 0.117400 0.030585
v -0.186726 0.144265 0.040083
v -0.039614 2.964760 0.044308
v -0.039625 2.965331 -0.045297
v -0.039767 0.956357 -0.044912
v -0.039767 0.955825 0.043913
v -0.053039 0.755117 -0.048872
v -0.053197 0.754511 0.047726
v -0.164176 0.267872 -0.049799
v -0.166478 0.268975 0.043421
v 0.062816 -0.000000 0.027959
v 0.036414 0.037282 0.068477
v 0.023380 0.019529 0.050255
v -0.143159 0.122435 0.071080
v -0.145818 0.102464 0.051489
v 0.138086 4.973953 -0.085759
v 0.183740 4.973942 -0.036670
v 0.182146 2.965002 -0.035663
v 0.138568 2.964985 -0.082964
v 0.069894 4.974022 -0.086896
v 0.069848 2.965048 -0.086251
v 0.001571 4.974236 -0.085550
v 0.000649 2.965512 -0.085351
v 0.183424 4.973947 0.036608
v 0.137572 4.973885 0.084854
v 0.138409 2.965189 0.084656
v 0.183521 2.964985 0.036161
v 0.002431 4.974224 0.084679
v -0.039365 4.973744 0.044879
v 0.001248 2.965138 0.084435
v 0.069622 4.974005 0.085900
v 0.069588 2.965014 0.085748
v -0.039133 4.974547 -0.046435
v 0.184063 0.956035 -0.035629
v 0.140050 0.956040 -0.085384
v 0.172183 0.684462 -0.039391
v 0.070165 0.956159 -0.085961
v 0.127643 0.698521 -0.084841
v 0.116317 0.132499 -0.040681
v 0.000649 0.956832 -0.078873
v -0.012878 0.743106 -0.076898
v 0.064904 0.158262 -0.078217
v 0.085729 0.010721 -0.037857
v -0.121860 0.247285 -0.078301
v 0.000060 0.956029 0.084215
v 0.069577 0.956035 0.085743
v 0.139212 0.956063 0.084561
v 0.126738 0.698803 0.084001
v -0.014857 0.742670 0.084578
v -0.118878 0.246114 0.079701
v 0.063739 0.160949 0.077953
v 0.183679 0.956035 0.035761
v 0.171798 0.684622 0.039580
v 0.115294 0.129874 0.041413
v 0.086572 0.007111 0.040214
v -0.062220 0.057228 0.000256
v 0.062245 0.003292 -0.026181
f 1 2 3
f 4 5 3
f 4 6 5
f 7 2 1
f 7 8 2
f 9 10 11
f 9 11 12
f 12 11 13
f 12 13 14
f 14 13 15
f 14 15 16
f 16 15 2
f 16 2 8
f 17 18 19
f 19 18 20
f 19 20 21
f 21 20 8
f 21 8 7
f 22 23 24
f 22 24 25
f 26 22 25
f 26 25 27
f 28 26 27
f 28 27 29
f 30 31 32
f 30 32 33
f 23 30 33
f 23 33 24
f 34 35 9
f 34 9 36
f 37 34 36
f 37 36 38
f 31 37 38
f 31 38 32
f 35 10 9
f 35 39 10
f 39 29 10
f 39 28 29
f 25 24 40
f 25 40 41
f 27 25 41
f 41 40 42
f 27 41 43
f 29 27 43
f 41 42 44
f 43 41 44
f 44 42 45
f 29 43 46
f 10 29 46
f 10 46 11
f 46 43 47
f 11 46 47
f 44 47 43
f 11 47 13
f 44 45 48
f 48 47 44
f 48 45 49
f 48 49 4
f 13 47 50
f 48 50 47
f 50 48 4
f 13 50 15
f 50 4 3
f 15 50 3
f 15 3 2
f 36 9 12
f 36 12 51
f 38 36 51
f 51 12 14
f 38 51 52
f 32 38 52
f 32 52 53
f 53 52 54
f 51 14 55
f 52 51 55
f 55 54 52
f 55 14 16
f 56 54 55
f 55 16 56
f 56 16 8
f 56 57 54
f 56 8 20
f 57 56 20
f 57 20 18
f 33 32 53
f 33 53 58
f 24 33 58
f 58 53 54
f 24 58 40
f 58 54 59
f 40 58 59
f 59 54 57
f 40 59 42
f 59 57 60
f 42 59 60
f 60 57 18
f 42 60 45
f 60 18 61
f 45 60 61
f 45 61 49
f 1 3 5
f 5 62 1
f 1 62 7
f 62 21 7
f 62 19 21
f 6 62 5
f 62 17 19
f 6 4 49
f 63 62 6
f 6 49 63
f 63 17 62
f 63 49 61
f 63 61 17
f 17 61 18
