# xeng handle part (Y < 6.470)
o xeng_handle
v 0.072004 1.199824 0.062818
v 0.041766 1.177331 0.091953
v 0.038546 1.160602 0.086182
v 0.074113 1.214227 0.070026
v -0.038676 1.160608 0.086376
v -0.071108 1.199796 0.061828
v -0.071029 1.141706 0.061720
v -0.000036 1.149428 0.093871
v -0.072562 0.577291 0.063350
v -0.000036 0.577331 0.096745
v 0.073814 0.577325 0.064482
v 0.072326 1.141752 0.063016
v -0.092482 1.263547 0.029197
v -0.075137 1.213843 0.070382
v -0.101206 1.277872 0.035086
v -0.112316 1.339367 -0.002885
v -0.103988 1.336826 -0.008175
v -0.111875 1.395475 -0.003502
v -0.071533 1.336357 -0.080712
v -0.000037 2.418792 -0.109728
v -0.000036 1.336328 -0.111239
v -0.070391 2.418832 -0.079943
v -0.111611 2.418838 -0.003056
v -0.111923 3.458284 -0.003519
v -0.071021 3.458284 -0.080198
v -0.000038 3.458221 -0.108377
v -0.111635 4.505485 -0.003621
v -0.070139 4.505452 -0.078936
v -0.000040 4.505491 -0.109332
v -0.112643 5.481338 -0.003604
v -0.070428 5.481366 -0.079683
v -0.000046 5.481434 -0.108546
v 0.000728 5.846413 -0.117202
v -0.093234 5.860608 -0.068120
v -0.109979 5.861405 -0.006432
v -0.000115 6.105336 -0.072119
v -0.096169 6.135138 -0.043979
v -0.111439 6.136768 -0.009154
v 0.109948 5.861377 -0.006512
v 0.100471 6.136134 -0.046826
v 0.111367 6.136705 -0.009261
v 0.094277 5.861156 -0.066971
v 0.112483 5.481343 -0.003592
v 0.068730 5.481672 -0.078914
v 0.070745 4.505452 -0.079604
v 0.111562 4.505485 -0.003621
v 0.070332 3.458284 -0.079610
v 0.111811 3.458290 -0.003519
v 0.069853 2.418838 -0.079514
v 0.111620 2.418832 -0.003066
v 0.111768 1.395475 -0.003502
v 0.071516 1.336351 -0.080764
v 0.103752 1.337047 -0.007518
v 0.112124 1.339367 -0.002908
v 0.092024 1.263536 0.029061
v 0.101410 1.277788 0.035058
v -0.100085 0.577319 -0.009075
v -0.098897 1.202618 -0.010025
v -0.042336 1.177252 0.092966
v -0.000036 0.577320 -0.115176
v 0.072134 0.577268 -0.081652
v -0.073812 0.577308 -0.082925
v 0.100115 0.577314 -0.009069
v 0.098791 1.202624 -0.010019
v -0.000138 1.374136 0.105661
v -0.000036 1.160420 0.100303
v -0.078271 1.379137 0.068532
v 0.000036 2.418894 0.106182
v -0.078481 2.418832 0.069183
v -0.000124 3.458498 0.106526
v -0.077933 3.458369 0.068583
v -0.000152 4.505576 0.106006
v -0.078144 4.505485 0.068956
v -0.000041 5.481281 0.101378
v -0.078116 5.481378 0.069098
v -0.078270 5.861411 0.068906
v -0.000109 5.861365 0.100230
v -0.077818 6.136751 0.068136
v -0.000245 6.136745 0.100332
v 0.078007 6.136728 0.068877
v 0.078210 5.861400 0.069217
v 0.077617 5.481395 0.068617
v 0.077958 4.505485 0.068854
v 0.078264 3.458369 0.069007
v 0.078134 2.418832 0.068906
v 0.078096 1.379137 0.068425
v -0.150428 6.327226 -0.002258
v -0.151034 6.333516 -0.018641
v -0.097228 6.280582 -0.031280
v -0.073727 0.206281 0.079648
v -0.000035 0.118254 0.110362
v 0.073651 0.206270 0.079638
v -0.468040 6.324821 0.040653
v -0.465720 6.323180 0.047652
v -0.469992 6.476136 0.093514
v -0.473465 6.478993 0.083122
v -0.311288 6.326309 0.012740
v -0.312990 6.331536 0.004593
v 0.471187 6.349499 0.047821
v 0.466973 6.346229 0.058406
v 0.422732 6.321252 0.038984
v 0.424612 6.324493 0.027806
v 0.311177 6.327797 0.012514
v 0.312886 6.332527 0.004339
v 0.149933 6.327701 -0.001664
v 0.150889 6.333715 -0.018579
v 0.073697 0.206479 -0.098138
v 0.105971 0.245532 -0.008944
v 0.152802 0.235428 -0.009159
v 0.152852 0.200783 -0.092056
v 0.291043 0.215549 -0.008950
v 0.291185 0.187346 -0.078512
v 0.391454 0.167150 -0.057926
v 0.393468 0.186289 -0.009419
v -0.122069 6.264204 -0.001380
v -0.091050 6.220751 -0.043216
v -0.000053 6.199439 -0.045938
v -0.000126 6.285820 -0.014811
v -0.000245 6.323978 -0.003254
v 0.096200 6.280440 -0.030131
v 0.121375 6.264323 -0.001397
v 0.090786 6.220620 -0.041734
v -0.106030 0.245514 -0.008944
v -0.000035 0.118140 -0.129026
v 0.473252 6.479226 0.082624
v 0.468772 6.475939 0.094714
v -0.073783 0.206536 -0.098222
v -0.152894 0.235660 -0.009154
v -0.152923 0.200771 -0.092038
v -0.291256 0.216181 -0.008820
v -0.291221 0.187238 -0.078410
v -0.391406 0.166810 -0.057807
v -0.393685 0.186384 -0.009437
v -0.152940 0.200454 0.072170
v -0.291148 0.187176 0.060001
v -0.393946 0.166748 0.039330
v 0.219625 6.630106 0.087868
v -0.000042 6.380772 0.085584
v 0.138884 6.490008 0.043035
v -0.138826 6.489991 0.042904
v -0.219306 6.630337 0.087970
v -0.307904 6.489821 0.043012
v -0.140528 6.495224 0.023427
v -0.000070 6.482178 0.072283
v 0.140338 6.495270 0.023115
v 0.307618 6.489754 0.043273
v -0.291023 0.049285 -0.077442
v -0.394591 0.049896 -0.008441
v -0.393341 0.071417 -0.057851
v -0.291181 0.021022 -0.008808
v -0.152878 0.003037 -0.009538
v -0.152765 0.037282 -0.089724
v -0.000035 -0.000000 -0.009210
v -0.000035 0.034475 -0.092457
v 0.152683 0.037440 -0.089572
v 0.152819 0.002936 -0.009538
v 0.290896 0.049495 -0.077240
v 0.291128 0.020927 -0.008820
v 0.394504 0.050050 -0.008435
v 0.393536 0.071186 -0.058253
v -0.401046 0.171239 -0.009629
v -0.401317 0.156332 -0.047651
v -0.403206 0.118265 -0.009227
v -0.392396 0.119096 -0.078489
v -0.402674 0.118774 -0.064860
v -0.402143 0.081538 -0.048320
v -0.403399 0.064510 -0.008362
v -0.393923 0.069668 0.038928
v -0.403264 0.080162 0.028490
v -0.392860 0.118457 0.061641
v -0.401984 0.118650 0.046514
v -0.401515 0.156078 0.029299
v 0.393904 0.166726 0.039340
v 0.400658 0.171206 -0.009600
v 0.401530 0.156090 0.029305
v 0.402934 0.118266 -0.009198
v 0.393055 0.118408 0.061596
v 0.401801 0.118679 0.046372
v 0.393943 0.069601 0.038820
v 0.403295 0.080170 0.028513
v 0.403357 0.064499 -0.008367
v 0.402836 0.081454 -0.048341
v 0.392405 0.119182 -0.078630
v 0.403216 0.119216 -0.064742
v 0.401677 0.156492 -0.047799
v -0.291017 0.049925 0.058513
v -0.152844 0.038130 0.070840
v -0.291091 0.117592 0.088598
v -0.152776 0.118373 0.106690
v -0.000035 0.034747 0.073669
v 0.152768 0.038142 0.070818
v 0.290970 0.049830 0.058586
v 0.152694 0.118379 0.106566
v 0.291004 0.117576 0.088531
v 0.152875 0.200500 0.072232
v 0.291066 0.187109 0.059955
v -0.290972 0.117812 -0.105526
v -0.152900 0.118044 -0.124098
v 0.152836 0.118039 -0.124138
v 0.290874 0.117812 -0.105372
v 0.000026 6.240001 0.099246
v -0.076578 6.285005 0.066009
v 0.076428 6.285017 0.066535
f 1 2 3
f 1 4 2
f 5 6 7
f 5 7 8
f 8 7 9
f 8 9 10
f 8 10 11
f 8 11 12
f 3 8 12
f 3 12 1
f 13 14 15
f 16 13 15
f 16 17 13
f 17 16 18
f 17 18 19
f 19 20 21
f 18 22 19
f 19 22 20
f 18 23 22
f 22 23 24
f 20 22 25
f 22 24 25
f 20 25 26
f 25 24 27
f 26 25 28
f 25 27 28
f 26 28 29
f 28 27 30
f 29 28 31
f 28 30 31
f 29 31 32
f 31 33 32
f 30 34 31
f 31 34 33
f 30 35 34
f 34 36 33
f 35 37 34
f 34 37 36
f 35 38 37
f 39 40 41
f 39 42 40
f 43 42 39
f 43 44 42
f 45 44 43
f 45 43 46
f 47 45 46
f 47 46 48
f 49 47 48
f 49 48 50
f 51 49 50
f 51 52 49
f 53 52 51
f 53 51 54
f 54 55 53
f 54 56 55
f 55 56 4
f 55 4 1
f 7 57 9
f 7 58 57
f 6 58 7
f 6 13 58
f 58 13 17
f 13 6 14
f 6 59 14
f 6 5 59
f 60 52 61
f 60 21 52
f 42 36 40
f 42 33 36
f 44 33 42
f 44 32 33
f 29 32 44
f 29 44 45
f 26 29 45
f 26 45 47
f 20 26 47
f 20 47 49
f 52 20 49
f 52 21 20
f 62 57 58
f 62 58 19
f 60 62 19
f 19 58 17
f 60 19 21
f 12 11 63
f 12 63 64
f 61 64 63
f 1 12 64
f 61 52 64
f 1 64 55
f 52 53 64
f 64 53 55
f 2 4 65
f 2 65 66
f 3 2 66
f 3 66 8
f 5 8 66
f 5 66 59
f 59 66 65
f 59 65 14
f 14 65 67
f 15 14 67
f 15 67 16
f 16 67 18
f 68 67 65
f 67 23 18
f 68 69 67
f 67 69 23
f 69 68 70
f 23 69 71
f 69 70 71
f 23 71 24
f 71 70 72
f 24 71 73
f 71 72 73
f 24 73 27
f 73 72 74
f 27 73 75
f 73 74 75
f 27 75 30
f 75 35 30
f 74 76 75
f 75 76 35
f 74 77 76
f 76 38 35
f 77 78 76
f 76 78 38
f 77 79 78
f 77 80 79
f 81 41 80
f 77 81 80
f 81 39 41
f 74 81 77
f 82 39 81
f 74 82 81
f 82 43 39
f 46 43 82
f 83 82 74
f 46 82 83
f 83 74 72
f 48 46 83
f 84 83 72
f 48 83 84
f 84 72 70
f 50 48 84
f 85 84 70
f 50 84 85
f 85 70 68
f 86 50 85
f 68 86 85
f 86 51 50
f 68 65 86
f 54 51 86
f 4 86 65
f 56 54 86
f 56 86 4
f 87 88 89
f 10 9 90
f 10 90 91
f 10 91 92
f 10 92 11
f 93 94 95
f 93 95 96
f 88 87 97
f 88 97 98
f 98 97 94
f 98 94 93
f 99 100 101
f 99 101 102
f 102 101 103
f 102 103 104
f 104 103 105
f 104 105 106
f 107 108 109
f 107 109 110
f 111 110 109
f 111 112 110
f 111 113 112
f 111 114 113
f 37 38 115
f 36 37 116
f 37 115 116
f 36 116 117
f 116 115 89
f 89 117 116
f 87 89 115
f 89 118 117
f 89 119 118
f 89 88 119
f 105 120 106
f 105 121 120
f 121 122 120
f 40 122 121
f 40 121 41
f 9 123 90
f 9 57 123
f 61 107 124
f 61 124 60
f 125 126 100
f 125 100 99
f 127 128 123
f 127 129 128
f 130 128 129
f 130 129 131
f 130 131 132
f 130 132 133
f 123 134 90
f 123 128 134
f 135 134 128
f 135 128 130
f 133 135 130
f 133 136 135
f 118 119 106
f 118 106 120
f 118 120 122
f 118 122 117
f 36 117 122
f 36 122 40
f 126 101 100
f 126 103 101
f 105 103 137
f 138 105 139
f 138 140 87
f 87 141 97
f 97 141 94
f 142 93 96
f 142 98 93
f 88 98 142
f 88 142 143
f 143 119 88
f 143 144 119
f 145 119 144
f 145 106 119
f 104 106 145
f 99 102 104
f 99 104 125
f 125 104 146
f 104 145 146
f 147 148 149
f 147 150 148
f 147 151 150
f 147 152 151
f 153 151 152
f 153 152 154
f 153 154 155
f 153 155 156
f 157 156 155
f 157 158 156
f 157 159 158
f 157 160 159
f 57 127 123
f 57 62 127
f 62 124 127
f 62 60 124
f 11 92 108
f 11 108 63
f 63 108 107
f 63 107 61
f 161 133 132
f 161 132 162
f 163 161 162
f 162 132 164
f 162 164 165
f 163 162 165
f 165 164 149
f 165 149 166
f 163 165 166
f 166 149 148
f 166 148 167
f 167 163 166
f 167 148 168
f 167 168 169
f 169 163 167
f 170 169 168
f 170 171 169
f 171 163 169
f 171 170 136
f 171 136 172
f 172 163 171
f 172 136 133
f 172 133 161
f 172 161 163
f 173 174 114
f 173 175 174
f 175 176 174
f 175 173 177
f 175 177 178
f 178 176 175
f 178 177 179
f 178 179 180
f 178 180 176
f 159 180 179
f 159 181 180
f 176 180 181
f 160 181 159
f 160 182 181
f 176 181 182
f 183 182 160
f 183 184 182
f 176 182 184
f 113 184 183
f 113 185 184
f 185 176 184
f 114 185 113
f 114 174 185
f 174 176 185
f 150 168 148
f 150 186 168
f 186 170 168
f 150 187 186
f 150 151 187
f 186 188 170
f 188 186 187
f 188 136 170
f 188 135 136
f 188 134 135
f 188 189 134
f 188 187 189
f 90 134 189
f 90 189 91
f 91 189 187
f 190 187 151
f 91 187 190
f 190 151 153
f 190 153 156
f 190 156 191
f 91 190 191
f 158 191 156
f 158 159 179
f 158 179 192
f 158 192 191
f 192 179 177
f 91 191 193
f 92 91 193
f 194 191 192
f 192 177 194
f 194 193 191
f 194 177 173
f 92 193 195
f 194 195 193
f 108 92 195
f 108 195 109
f 194 196 195
f 196 109 195
f 194 173 196
f 196 111 109
f 173 111 196
f 173 114 111
f 131 164 132
f 131 197 164
f 197 149 164
f 197 147 149
f 197 152 147
f 131 198 197
f 197 198 152
f 131 129 198
f 154 152 198
f 124 198 129
f 154 198 124
f 124 129 127
f 154 124 199
f 154 199 155
f 124 107 110
f 124 110 199
f 112 199 110
f 200 155 199
f 112 200 199
f 200 157 155
f 200 160 157
f 200 183 160
f 112 183 200
f 112 113 183
f 78 115 38
f 78 79 201
f 78 202 115
f 78 201 202
f 115 202 87
f 201 138 202
f 87 202 138
f 203 105 138
f 203 121 105
f 201 203 138
f 80 121 203
f 80 203 201
f 80 201 79
f 80 41 121
