# xeng head part (Y >= 6.470)
o xeng_head
v -0.473465 6.478993 0.083122
v -0.469992 6.476136 0.093514
v -0.469625 7.075298 0.253503
v -0.473358 7.078054 0.243619
v -0.466978 7.816810 0.453703
v -0.471367 7.819327 0.439893
v -0.451352 7.887424 0.469526
v -0.455086 7.888583 0.457419
v -0.473467 7.956295 0.486560
v -0.473161 7.955215 0.479658
v -0.470118 8.068739 0.519146
v -0.471283 8.071483 0.511576
v -0.238379 8.080654 0.474153
v -0.239912 8.085032 0.465018
v -0.177902 8.066279 0.466233
v -0.178355 8.073803 0.453007
v -0.050630 8.067592 0.457538
v -0.050422 8.074494 0.445431
v 0.001201 8.085407 0.458461
v 0.001778 8.086787 0.446823
v 0.168702 8.085078 0.468157
v 0.171028 8.087262 0.455122
v 0.242089 8.059003 0.472038
v 0.243384 8.064932 0.459660
v 0.348904 8.080966 0.492652
v 0.351206 8.081039 0.483482
v 0.468900 8.068265 0.518506
v 0.471491 8.070584 0.511497
v 0.469116 7.769476 0.440306
v 0.472985 7.772899 0.428889
v 0.470790 7.075379 0.254216
v 0.473506 7.078105 0.243456
v 0.468772 6.475939 0.094714
v 0.473252 6.479226 0.082624
v -0.236330 7.780722 0.399681
v -0.000066 7.784948 0.383863
v -0.236250 7.060703 0.207339
v 0.236081 7.780682 0.399856
v 0.236087 7.060823 0.206904
v 0.219625 6.630106 0.087868
v 0.311177 6.327797 0.012514
v 0.001181 6.947734 0.158540
v 0.149933 6.327701 -0.001664
v 0.138884 6.490008 0.043035
v -0.000042 6.380772 0.085584
v -0.138826 6.489991 0.042904
v -0.219306 6.630337 0.087970
v -0.150428 6.327226 -0.002258
v -0.465720 6.323180 0.047652
v -0.239188 7.785943 0.380232
v -0.000116 7.790198 0.364306
v -0.239182 7.066078 0.187262
v -0.307904 6.489821 0.043012
v -0.000144 7.045096 0.164445
v -0.140528 6.495224 0.023427
v -0.000070 6.482178 0.072283
v 0.140338 6.495270 0.023115
v 0.307618 6.489754 0.043273
v 0.238927 7.066004 0.187544
v 0.238961 7.785950 0.380238
f 1 2 3
f 1 3 4
f 4 3 5
f 4 5 6
f 7 6 5
f 7 8 6
f 9 8 7
f 9 10 8
f 11 10 9
f 11 12 10
f 12 11 13
f 12 13 14
f 14 13 15
f 14 15 16
f 16 15 17
f 16 17 18
f 18 17 19
f 18 19 20
f 20 19 21
f 20 21 22
f 22 21 23
f 22 23 24
f 24 23 25
f 24 25 26
f 26 25 27
f 26 27 28
f 29 28 27
f 29 30 28
f 30 29 31
f 30 31 32
f 32 31 33
f 32 33 34
f 9 13 11
f 7 13 9
f 35 13 7
f 35 15 13
f 35 7 5
f 36 15 35
f 36 17 15
f 36 19 17
f 36 21 19
f 5 37 35
f 37 36 35
f 5 3 37
f 36 38 21
f 21 38 23
f 23 38 25
f 25 29 27
f 25 38 29
f 31 29 38
f 31 38 39
f 39 38 36
f 33 31 39
f 40 41 33
f 33 39 40
f 39 36 42
f 40 39 42
f 37 42 36
f 43 40 44
f 40 42 44
f 42 45 44
f 46 45 42
f 37 46 42
f 37 47 46
f 48 46 47
f 3 47 37
f 3 2 47
f 49 47 2
f 14 10 12
f 14 8 10
f 14 50 8
f 8 50 6
f 16 50 14
f 4 6 50
f 51 50 16
f 51 16 18
f 51 18 20
f 4 50 52
f 52 50 51
f 1 4 52
f 51 20 22
f 1 52 53
f 53 52 54
f 52 51 54
f 53 54 55
f 56 55 54
f 57 56 54
f 32 34 58
f 59 58 57
f 32 58 59
f 59 57 54
f 59 54 51
f 32 59 60
f 59 51 60
f 32 60 30
f 51 22 60
f 60 28 30
f 60 22 24
f 60 26 28
f 60 24 26
