# Blender 4.4.3
# www.blender.org
mtllib BabyWheat.mtl
o BabyWheat
v 0.025724 0.120195 -0.025724
v 0.011919 0.068746 -0.011919
v 0.025724 0.120195 0.025724
v 0.011919 0.068746 0.011919
v -0.025724 0.120195 -0.025724
v -0.011919 0.068746 -0.011919
v -0.025724 0.120195 0.025724
v -0.011919 0.068746 0.011919
v 0.017823 0.104938 0.000000
v 0.011919 0.068746 0.000000
v -0.017823 0.104938 0.000000
v -0.011919 0.068746 0.000000
v 0.000000 0.104938 0.017823
v 0.000000 0.068746 0.011919
v 0.000000 0.104938 -0.017823
v 0.000000 0.068746 -0.011919
v 0.007013 -0.000150 0.000000
v 0.000000 0.094883 0.000000
v 0.007013 0.057916 0.000000
v 0.007013 0.057916 0.007013
v 0.000000 0.057916 0.007013
v -0.007013 0.057916 0.007013
v -0.007013 0.057916 0.000000
v -0.007013 0.057916 -0.007013
v 0.000000 0.057916 -0.007013
v 0.007013 0.057916 -0.007013
v 0.007013 -0.000150 0.007013
v 0.000000 -0.000150 0.007013
v -0.007013 -0.000150 0.007013
v -0.007013 -0.000150 0.000000
v -0.007013 -0.000150 -0.007013
v 0.000000 -0.000150 -0.007013
v 0.007013 -0.000150 -0.007013
v 0.000000 -0.000150 0.000000
vn 0.9722 -0.1992 -0.1233
vn 0.1233 -0.1992 0.9722
vn -0.9722 -0.1992 0.1233
vn -0.1233 -0.1992 -0.9722
vn 0.4039 0.8209 0.4039
vn -0.9109 -0.4127 -0.0000
vn 0.4039 0.8209 -0.4039
vn -0.9722 -0.1992 -0.1233
vn 0.9722 -0.1992 0.1233
vn -0.4039 0.8209 -0.4039
vn -0.0000 -0.4127 0.9109
vn -0.0000 -0.4127 -0.9109
vn -0.4039 0.8209 0.4039
vn 0.1233 -0.1992 -0.9722
vn -0.1233 -0.1992 0.9722
vn -1.0000 -0.0000 -0.0000
vn -0.0000 -0.0000 1.0000
vn 1.0000 -0.0000 -0.0000
vn 0.9109 -0.4127 -0.0000
vn -0.0000 -1.0000 -0.0000
vn -0.0000 -0.0000 -1.0000
vt 0.375000 0.125000
vt 0.625000 0.125000
vt 0.625000 0.250000
vt 0.375000 0.250000
vt 0.375000 0.375000
vt 0.625000 0.375000
vt 0.625000 0.500000
vt 0.375000 0.500000
vt 0.375000 0.625000
vt 0.625000 0.625000
vt 0.625000 0.750000
vt 0.375000 0.750000
vt 0.375000 0.875000
vt 0.625000 0.875000
vt 0.625000 1.000000
vt 0.375000 1.000000
vt 0.250000 0.625000
vt 0.250000 0.750000
vt 0.250000 0.500000
vt 0.375000 0.000000
vt 0.625000 0.000000
vt 0.125000 0.500000
vt 0.125000 0.625000
vt 0.125000 0.750000
vt 0.750000 0.625000
vt 0.875000 0.625000
vt 0.875000 0.750000
vt 0.750000 0.750000
vt 0.750000 0.500000
vt 0.875000 0.500000
s 0
usemtl Material.001
f 9/1/1 3/4/1 4/3/1 10/2/1
f 13/5/2 7/8/2 8/7/2 14/6/2
f 11/9/3 5/12/3 6/11/3 12/10/3
f 15/13/4 1/16/4 2/15/4 16/14/4
f 18/17/5 15/18/5 5/12/5 11/9/5
f 12/10/6 23/10/6 22/7/6 8/7/6
f 6/11/6 24/11/6 23/10/6 12/10/6
f 13/19/7 18/17/7 11/9/7 7/8/7
f 7/8/8 11/9/8 12/10/8 8/7/8
f 1/20/9 9/1/9 10/2/9 2/21/9
f 3/22/10 9/23/10 18/17/10 13/19/10
f 14/6/11 21/6/11 20/3/11 4/3/11
f 16/14/12 25/14/12 24/11/12 6/11/12
f 9/23/13 1/24/13 15/18/13 18/17/13
f 5/12/14 15/13/14 16/14/14 6/11/14
f 3/4/15 13/5/15 14/6/15 4/3/15
f 23/10/16 30/10/16 29/7/16 22/7/16
f 21/6/17 28/6/17 27/3/17 20/3/17
f 20/3/18 27/3/18 17/2/18 19/2/18
f 24/11/16 31/11/16 30/10/16 23/10/16
f 10/2/19 19/2/19 26/21/19 2/21/19
f 4/3/19 20/3/19 19/2/19 10/2/19
f 2/15/12 26/15/12 25/14/12 16/14/12
f 8/7/11 22/7/11 21/6/11 14/6/11
f 34/25/20 32/28/20 33/27/20 17/26/20
f 28/29/20 34/25/20 17/26/20 27/30/20
f 29/7/20 30/10/20 34/25/20 28/29/20
f 30/10/20 31/11/20 32/28/20 34/25/20
f 26/15/21 33/15/21 32/14/21 25/14/21
f 22/7/17 29/7/17 28/6/17 21/6/17
f 25/14/21 32/14/21 31/11/21 24/11/21
f 19/2/18 17/2/18 33/21/18 26/21/18
