# Blender 4.4.3
# www.blender.org
mtllib SmallerWheat.mtl
o SmallerWheat
v 0.022725 0.601391 -0.022725
v 0.022725 0.601391 -0.022725
v 0.022725 0.601391 -0.022725
v 0.042424 0.671474 -0.042424
v 0.042424 0.671474 -0.042424
v 0.042424 0.671474 -0.042424
v 0.022725 0.601391 0.022725
v 0.022725 0.601391 0.022725
v 0.022725 0.601391 0.022725
v 0.042424 0.671474 0.042424
v 0.042424 0.671474 0.042424
v 0.042424 0.671474 0.042424
v -0.022725 0.601391 -0.022725
v -0.022725 0.601391 -0.022725
v -0.022725 0.601391 -0.022725
v -0.042424 0.671474 -0.042424
v -0.042424 0.671474 -0.042424
v -0.042424 0.671474 -0.042424
v -0.022725 0.601391 0.022725
v -0.022725 0.601391 0.022725
v -0.022725 0.601391 0.022725
v -0.042424 0.671474 0.042424
v -0.042424 0.671474 0.042424
v -0.042424 0.671474 0.042424
v -0.040169 0.652113 0.000000
v -0.040169 0.652113 0.000000
v -0.040169 0.652113 0.000000
v -0.040169 0.652113 0.000000
v 0.022725 0.601391 0.000000
v 0.022725 0.601391 0.000000
v 0.022725 0.601391 0.000000
v -0.022725 0.601391 0.000000
v -0.022725 0.601391 0.000000
v -0.022725 0.601391 0.000000
v 0.040169 0.652113 0.000000
v 0.040169 0.652113 0.000000
v 0.040169 0.652113 0.000000
v 0.040169 0.652113 0.000000
v 0.000000 0.652113 -0.040169
v 0.000000 0.652113 -0.040169
v 0.000000 0.652113 -0.040169
v 0.000000 0.652113 -0.040169
v 0.000000 0.601391 0.022725
v 0.000000 0.601391 0.022725
v 0.000000 0.601391 0.022725
v 0.000000 0.652113 0.040169
v 0.000000 0.652113 0.040169
v 0.000000 0.652113 0.040169
v 0.000000 0.652113 0.040169
v 0.000000 0.601391 -0.022725
v 0.000000 0.601391 -0.022725
v 0.000000 0.601391 -0.022725
v 0.000000 0.639261 0.000000
v 0.000000 0.639261 0.000000
v 0.000000 0.639261 0.000000
v 0.000000 0.639261 0.000000
v 0.000000 0.601391 0.000000
v 0.022725 0.339736 -0.022725
v 0.022725 0.339736 -0.022725
v 0.022725 0.339736 -0.022725
v 0.022725 0.339736 -0.022725
v 0.043231 0.409819 -0.043231
v 0.043231 0.409819 -0.043231
v 0.043231 0.409819 -0.043231
v 0.022725 0.339736 0.022725
v 0.022725 0.339736 0.022725
v 0.022725 0.339736 0.022725
v 0.022725 0.339736 0.022725
v 0.043231 0.409819 0.043231
v 0.043231 0.409819 0.043231
v 0.043231 0.409819 0.043231
v -0.022725 0.339736 -0.022725
v -0.022725 0.339736 -0.022725
v -0.022725 0.339736 -0.022725
v -0.022725 0.339736 -0.022725
v -0.043231 0.409819 -0.043231
v -0.043231 0.409819 -0.043231
v -0.043231 0.409819 -0.043231
v -0.022725 0.339736 0.022725
v -0.022725 0.339736 0.022725
v -0.022725 0.339736 0.022725
v -0.022725 0.339736 0.022725
v -0.043231 0.409819 0.043231
v -0.043231 0.409819 0.043231
v -0.043231 0.409819 0.043231
v -0.040169 0.390458 0.000000
v -0.040169 0.390458 0.000000
v -0.040169 0.390458 0.000000
v -0.040169 0.390458 0.000000
v 0.022725 0.339736 0.000000
v 0.022725 0.339736 0.000000
v 0.022725 0.339736 0.000000
v -0.022725 0.339736 0.000000
v -0.022725 0.339736 0.000000
v -0.022725 0.339736 0.000000
v 0.040169 0.390458 0.000000
v 0.040169 0.390458 0.000000
v 0.040169 0.390458 0.000000
v 0.040169 0.390458 0.000000
v 0.000000 0.390458 -0.040169
v 0.000000 0.390458 -0.040169
v 0.000000 0.390458 -0.040169
v 0.000000 0.390458 -0.040169
v 0.000000 0.339736 0.022725
v 0.000000 0.339736 0.022725
v 0.000000 0.339736 0.022725
v 0.000000 0.390458 0.040169
v 0.000000 0.390458 0.040169
v 0.000000 0.390458 0.040169
v 0.000000 0.390458 0.040169
v 0.000000 0.339736 -0.022725
v 0.000000 0.339736 -0.022725
v 0.000000 0.339736 -0.022725
v 0.000000 0.377606 0.000000
v 0.000000 0.377606 0.000000
v 0.000000 0.377606 0.000000
v 0.000000 0.377606 0.000000
v 0.000000 0.314593 0.012144
v 0.000000 0.314593 0.012144
v -0.012144 0.314593 0.012144
v -0.012144 0.314593 0.012144
v -0.012144 0.314593 0.012144
v -0.012144 0.314593 0.012144
v 0.012144 0.314593 -0.000000
v 0.012144 0.314593 -0.000000
v 0.012144 0.314593 0.012144
v 0.012144 0.314593 0.012144
v 0.012144 0.314593 0.012144
v 0.012144 0.314593 0.012144
v -0.012144 0.314593 -0.000000
v -0.012144 0.314593 -0.000000
v -0.012144 0.314593 -0.012144
v -0.012144 0.314593 -0.012144
v -0.012144 0.314593 -0.012144
v -0.012144 0.314593 -0.012144
v 0.000000 0.314593 -0.012144
v 0.000000 0.314593 -0.012144
v 0.012144 0.314593 -0.012144
v 0.012144 0.314593 -0.012144
v 0.012144 0.314593 -0.012144
v 0.012144 0.314593 -0.012144
v 0.000000 0.000773 0.012144
v 0.000000 0.000773 0.012144
v -0.012144 0.000773 0.012144
v -0.012144 0.000773 0.012144
v -0.012144 0.000773 0.012144
v 0.012144 0.000773 -0.000000
v 0.012144 0.000773 -0.000000
v 0.012144 0.000773 0.012144
v 0.012144 0.000773 0.012144
v 0.012144 0.000773 0.012144
v -0.012144 0.000773 -0.000000
v -0.012144 0.000773 -0.000000
v -0.012144 0.000773 -0.012144
v -0.012144 0.000773 -0.012144
v -0.012144 0.000773 -0.012144
v 0.000000 0.000773 -0.012144
v 0.000000 0.000773 -0.012144
v 0.012144 0.000773 -0.012144
v 0.012144 0.000773 -0.012144
v 0.012144 0.000773 -0.012144
v 0.000000 0.000773 -0.000000
v 0.022725 0.374318 -0.022725
v 0.022725 0.374318 -0.022725
v 0.022725 0.374318 -0.022725
v 0.043231 0.444400 -0.043231
v 0.043231 0.444400 -0.043231
v 0.043231 0.444400 -0.043231
v 0.022725 0.374318 0.022725
v 0.022725 0.374318 0.022725
v 0.022725 0.374318 0.022725
v 0.043231 0.444400 0.043231
v 0.043231 0.444400 0.043231
v 0.043231 0.444400 0.043231
v -0.022725 0.374318 -0.022725
v -0.022725 0.374318 -0.022725
v -0.022725 0.374318 -0.022725
v -0.043231 0.444400 -0.043231
v -0.043231 0.444400 -0.043231
v -0.043231 0.444400 -0.043231
v -0.022725 0.374318 0.022725
v -0.022725 0.374318 0.022725
v -0.022725 0.374318 0.022725
v -0.043231 0.444400 0.043231
v -0.043231 0.444400 0.043231
v -0.043231 0.444400 0.043231
v -0.040169 0.425039 0.000000
v -0.040169 0.425039 0.000000
v -0.040169 0.425039 0.000000
v -0.040169 0.425039 0.000000
v 0.022725 0.374318 0.000000
v 0.022725 0.374318 0.000000
v 0.022725 0.374318 0.000000
v -0.022725 0.374318 0.000000
v -0.022725 0.374318 0.000000
v -0.022725 0.374318 0.000000
v 0.040169 0.425039 0.000000
v 0.040169 0.425039 0.000000
v 0.040169 0.425039 0.000000
v 0.040169 0.425039 0.000000
v 0.000000 0.425039 -0.040169
v 0.000000 0.425039 -0.040169
v 0.000000 0.425039 -0.040169
v 0.000000 0.425039 -0.040169
v 0.000000 0.374318 0.022725
v 0.000000 0.374318 0.022725
v 0.000000 0.374318 0.022725
v 0.000000 0.425039 0.040169
v 0.000000 0.425039 0.040169
v 0.000000 0.425039 0.040169
v 0.000000 0.425039 0.040169
v 0.000000 0.374318 -0.022725
v 0.000000 0.374318 -0.022725
v 0.000000 0.374318 -0.022725
v 0.000000 0.412187 0.000000
v 0.000000 0.412187 0.000000
v 0.000000 0.412187 0.000000
v 0.000000 0.412187 0.000000
v 0.000000 0.374318 0.000000
v 0.022725 0.416382 -0.022725
v 0.022725 0.416382 -0.022725
v 0.022725 0.416382 -0.022725
v 0.043231 0.486465 -0.043231
v 0.043231 0.486465 -0.043231
v 0.043231 0.486465 -0.043231
v 0.022725 0.416382 0.022725
v 0.022725 0.416382 0.022725
v 0.022725 0.416382 0.022725
v 0.043231 0.486465 0.043231
v 0.043231 0.486465 0.043231
v 0.043231 0.486465 0.043231
v -0.022725 0.416382 -0.022725
v -0.022725 0.416382 -0.022725
v -0.022725 0.416382 -0.022725
v -0.043231 0.486465 -0.043231
v -0.043231 0.486465 -0.043231
v -0.043231 0.486465 -0.043231
v -0.022725 0.416382 0.022725
v -0.022725 0.416382 0.022725
v -0.022725 0.416382 0.022725
v -0.043231 0.486465 0.043231
v -0.043231 0.486465 0.043231
v -0.043231 0.486465 0.043231
v -0.040169 0.467103 0.000000
v -0.040169 0.467103 0.000000
v -0.040169 0.467103 0.000000
v -0.040169 0.467103 0.000000
v 0.022725 0.416382 0.000000
v 0.022725 0.416382 0.000000
v 0.022725 0.416382 0.000000
v -0.022725 0.416382 0.000000
v -0.022725 0.416382 0.000000
v -0.022725 0.416382 0.000000
v 0.040169 0.467103 0.000000
v 0.040169 0.467103 0.000000
v 0.040169 0.467103 0.000000
v 0.040169 0.467103 0.000000
v 0.000000 0.467103 -0.040169
v 0.000000 0.467103 -0.040169
v 0.000000 0.467103 -0.040169
v 0.000000 0.467103 -0.040169
v 0.000000 0.416382 0.022725
v 0.000000 0.416382 0.022725
v 0.000000 0.416382 0.022725
v 0.000000 0.467103 0.040169
v 0.000000 0.467103 0.040169
v 0.000000 0.467103 0.040169
v 0.000000 0.467103 0.040169
v 0.000000 0.416382 -0.022725
v 0.000000 0.416382 -0.022725
v 0.000000 0.416382 -0.022725
v 0.000000 0.454251 0.000000
v 0.000000 0.454251 0.000000
v 0.000000 0.454251 0.000000
v 0.000000 0.454251 0.000000
v 0.000000 0.416382 0.000000
v 0.022725 0.450963 -0.022725
v 0.022725 0.450963 -0.022725
v 0.022725 0.450963 -0.022725
v 0.043231 0.521046 -0.043231
v 0.043231 0.521046 -0.043231
v 0.043231 0.521046 -0.043231
v 0.022725 0.450963 0.022725
v 0.022725 0.450963 0.022725
v 0.022725 0.450963 0.022725
v 0.043231 0.521046 0.043231
v 0.043231 0.521046 0.043231
v 0.043231 0.521046 0.043231
v -0.022725 0.450963 -0.022725
v -0.022725 0.450963 -0.022725
v -0.022725 0.450963 -0.022725
v -0.043231 0.521046 -0.043231
v -0.043231 0.521046 -0.043231
v -0.043231 0.521046 -0.043231
v -0.022725 0.450963 0.022725
v -0.022725 0.450963 0.022725
v -0.022725 0.450963 0.022725
v -0.043231 0.521046 0.043231
v -0.043231 0.521046 0.043231
v -0.043231 0.521046 0.043231
v -0.040169 0.501685 0.000000
v -0.040169 0.501685 0.000000
v -0.040169 0.501685 0.000000
v -0.040169 0.501685 0.000000
v 0.022725 0.450963 0.000000
v 0.022725 0.450963 0.000000
v 0.022725 0.450963 0.000000
v -0.022725 0.450963 0.000000
v -0.022725 0.450963 0.000000
v -0.022725 0.450963 0.000000
v 0.040169 0.501685 0.000000
v 0.040169 0.501685 0.000000
v 0.040169 0.501685 0.000000
v 0.040169 0.501685 0.000000
v 0.000000 0.501685 -0.040169
v 0.000000 0.501685 -0.040169
v 0.000000 0.501685 -0.040169
v 0.000000 0.501685 -0.040169
v 0.000000 0.450963 0.022725
v 0.000000 0.450963 0.022725
v 0.000000 0.450963 0.022725
v 0.000000 0.501685 0.040169
v 0.000000 0.501685 0.040169
v 0.000000 0.501685 0.040169
v 0.000000 0.501685 0.040169
v 0.000000 0.450963 -0.022725
v 0.000000 0.450963 -0.022725
v 0.000000 0.450963 -0.022725
v 0.000000 0.488832 0.000000
v 0.000000 0.488832 0.000000
v 0.000000 0.488832 0.000000
v 0.000000 0.488832 0.000000
v 0.000000 0.450963 0.000000
v 0.022725 0.479316 -0.022725
v 0.022725 0.479316 -0.022725
v 0.022725 0.479316 -0.022725
v 0.043231 0.549398 -0.043231
v 0.043231 0.549398 -0.043231
v 0.043231 0.549398 -0.043231
v 0.022725 0.479316 0.022725
v 0.022725 0.479316 0.022725
v 0.022725 0.479316 0.022725
v 0.043231 0.549398 0.043231
v 0.043231 0.549398 0.043231
v 0.043231 0.549398 0.043231
v -0.022725 0.479316 -0.022725
v -0.022725 0.479316 -0.022725
v -0.022725 0.479316 -0.022725
v -0.043231 0.549398 -0.043231
v -0.043231 0.549398 -0.043231
v -0.043231 0.549398 -0.043231
v -0.022725 0.479316 0.022725
v -0.022725 0.479316 0.022725
v -0.022725 0.479316 0.022725
v -0.043231 0.549398 0.043231
v -0.043231 0.549398 0.043231
v -0.043231 0.549398 0.043231
v -0.040169 0.530037 0.000000
v -0.040169 0.530037 0.000000
v -0.040169 0.530037 0.000000
v -0.040169 0.530037 0.000000
v 0.022725 0.479316 0.000000
v 0.022725 0.479316 0.000000
v 0.022725 0.479316 0.000000
v -0.022725 0.479316 0.000000
v -0.022725 0.479316 0.000000
v -0.022725 0.479316 0.000000
v 0.040169 0.530037 0.000000
v 0.040169 0.530037 0.000000
v 0.040169 0.530037 0.000000
v 0.040169 0.530037 0.000000
v 0.000000 0.530037 -0.040169
v 0.000000 0.530037 -0.040169
v 0.000000 0.530037 -0.040169
v 0.000000 0.530037 -0.040169
v 0.000000 0.479316 0.022725
v 0.000000 0.479316 0.022725
v 0.000000 0.479316 0.022725
v 0.000000 0.530037 0.040169
v 0.000000 0.530037 0.040169
v 0.000000 0.530037 0.040169
v 0.000000 0.530037 0.040169
v 0.000000 0.479316 -0.022725
v 0.000000 0.479316 -0.022725
v 0.000000 0.479316 -0.022725
v 0.000000 0.517185 0.000000
v 0.000000 0.517185 0.000000
v 0.000000 0.517185 0.000000
v 0.000000 0.517185 0.000000
v 0.000000 0.479316 0.000000
v 0.022725 0.521380 -0.022725
v 0.022725 0.521380 -0.022725
v 0.022725 0.521380 -0.022725
v 0.043231 0.591463 -0.043231
v 0.043231 0.591463 -0.043231
v 0.043231 0.591463 -0.043231
v 0.022725 0.521380 0.022725
v 0.022725 0.521380 0.022725
v 0.022725 0.521380 0.022725
v 0.043231 0.591463 0.043231
v 0.043231 0.591463 0.043231
v 0.043231 0.591463 0.043231
v -0.022725 0.521380 -0.022725
v -0.022725 0.521380 -0.022725
v -0.022725 0.521380 -0.022725
v -0.043231 0.591463 -0.043231
v -0.043231 0.591463 -0.043231
v -0.043231 0.591463 -0.043231
v -0.022725 0.521380 0.022725
v -0.022725 0.521380 0.022725
v -0.022725 0.521380 0.022725
v -0.043231 0.591463 0.043231
v -0.043231 0.591463 0.043231
v -0.043231 0.591463 0.043231
v -0.040169 0.572102 0.000000
v -0.040169 0.572102 0.000000
v -0.040169 0.572102 0.000000
v -0.040169 0.572102 0.000000
v 0.022725 0.521380 0.000000
v 0.022725 0.521380 0.000000
v 0.022725 0.521380 0.000000
v -0.022725 0.521380 0.000000
v -0.022725 0.521380 0.000000
v -0.022725 0.521380 0.000000
v 0.040169 0.572102 0.000000
v 0.040169 0.572102 0.000000
v 0.040169 0.572102 0.000000
v 0.040169 0.572102 0.000000
v 0.000000 0.572102 -0.040169
v 0.000000 0.572102 -0.040169
v 0.000000 0.572102 -0.040169
v 0.000000 0.572102 -0.040169
v 0.000000 0.521380 0.022725
v 0.000000 0.521380 0.022725
v 0.000000 0.521380 0.022725
v 0.000000 0.572102 0.040169
v 0.000000 0.572102 0.040169
v 0.000000 0.572102 0.040169
v 0.000000 0.572102 0.040169
v 0.000000 0.521380 -0.022725
v 0.000000 0.521380 -0.022725
v 0.000000 0.521380 -0.022725
v 0.000000 0.559249 0.000000
v 0.000000 0.559249 0.000000
v 0.000000 0.559249 0.000000
v 0.000000 0.559249 0.000000
v 0.000000 0.521380 0.000000
v 0.022725 0.555961 -0.022725
v 0.022725 0.555961 -0.022725
v 0.022725 0.555961 -0.022725
v 0.043231 0.626044 -0.043231
v 0.043231 0.626044 -0.043231
v 0.043231 0.626044 -0.043231
v 0.022725 0.555961 0.022725
v 0.022725 0.555961 0.022725
v 0.022725 0.555961 0.022725
v 0.043231 0.626044 0.043231
v 0.043231 0.626044 0.043231
v 0.043231 0.626044 0.043231
v -0.022725 0.555961 -0.022725
v -0.022725 0.555961 -0.022725
v -0.022725 0.555961 -0.022725
v -0.043231 0.626044 -0.043231
v -0.043231 0.626044 -0.043231
v -0.043231 0.626044 -0.043231
v -0.022725 0.555961 0.022725
v -0.022725 0.555961 0.022725
v -0.022725 0.555961 0.022725
v -0.043231 0.626044 0.043231
v -0.043231 0.626044 0.043231
v -0.043231 0.626044 0.043231
v -0.040169 0.606683 0.000000
v -0.040169 0.606683 0.000000
v -0.040169 0.606683 0.000000
v -0.040169 0.606683 0.000000
v 0.022725 0.555961 0.000000
v 0.022725 0.555961 0.000000
v 0.022725 0.555961 0.000000
v -0.022725 0.555961 0.000000
v -0.022725 0.555961 0.000000
v -0.022725 0.555961 0.000000
v 0.040169 0.606683 0.000000
v 0.040169 0.606683 0.000000
v 0.040169 0.606683 0.000000
v 0.040169 0.606683 0.000000
v 0.000000 0.606683 -0.040169
v 0.000000 0.606683 -0.040169
v 0.000000 0.606683 -0.040169
v 0.000000 0.606683 -0.040169
v 0.000000 0.555961 0.022725
v 0.000000 0.555961 0.022725
v 0.000000 0.555961 0.022725
v 0.000000 0.606683 0.040169
v 0.000000 0.606683 0.040169
v 0.000000 0.606683 0.040169
v 0.000000 0.606683 0.040169
v 0.000000 0.555961 -0.022725
v 0.000000 0.555961 -0.022725
v 0.000000 0.555961 -0.022725
v 0.000000 0.593831 0.000000
v 0.000000 0.593831 0.000000
v 0.000000 0.593831 0.000000
v 0.000000 0.593831 0.000000
v 0.000000 0.555961 0.000000
vn -0.0000 -1.0000 -0.0000
vn -0.0567 -0.3019 0.9517
vn -0.0568 -0.3018 0.9517
vn -0.9517 -0.3019 -0.0567
vn -0.9517 -0.3018 -0.0568
vn -0.3345 0.8810 -0.3345
vn -0.3345 0.8811 -0.3345
vn 0.9517 -0.3019 0.0567
vn 0.9517 -0.3018 0.0568
vn 0.0567 -0.3019 -0.9517
vn 0.0568 -0.3018 -0.9517
vn 0.9517 -0.3019 -0.0567
vn 0.9517 -0.3018 -0.0567
vn -0.3345 0.8811 0.3345
vn -0.9517 -0.3019 0.0567
vn -0.9517 -0.3018 0.0567
vn 0.3345 0.8810 0.3345
vn 0.3345 0.8811 0.3345
vn -0.0567 -0.3019 -0.9517
vn -0.0567 -0.3018 -0.9517
vn 0.3344 0.8811 -0.3344
vn 0.3345 0.8811 -0.3345
vn 0.0567 -0.3019 0.9517
vn 0.0567 -0.3018 0.9517
vn -0.9217 -0.3879 -0.0000
vn -0.0830 -0.2859 0.9547
vn 0.1498 -0.3809 0.9124
vn 0.0817 -0.3580 0.9301
vn -0.1119 -0.2665 0.9573
vn -0.9547 -0.2859 -0.0830
vn -0.9124 -0.3809 0.1498
vn -0.9301 -0.3580 0.0817
vn -0.9573 -0.2665 -0.1119
vn -0.3296 0.8847 -0.3296
vn -0.2127 0.8782 -0.4283
vn -0.4283 0.8782 -0.2127
vn 0.9547 -0.2859 0.0830
vn 0.9124 -0.3809 -0.1498
vn 0.9301 -0.3580 -0.0817
vn 0.9573 -0.2665 0.1119
vn 0.0830 -0.2859 -0.9547
vn -0.1498 -0.3809 -0.9124
vn -0.0817 -0.3580 -0.9301
vn 0.1119 -0.2665 -0.9573
vn 0.9396 -0.3300 -0.0909
vn 0.9743 -0.1599 0.1588
vn 0.9728 -0.2216 0.0677
vn 0.9152 -0.3722 -0.1547
vn -0.3199 0.8912 0.3215
vn -0.3887 0.8353 0.3887
vn -0.3215 0.8912 0.3199
vn -0.2432 0.9390 0.2432
vn -0.9396 -0.3300 0.0909
vn -0.9743 -0.1599 -0.1588
vn -0.9728 -0.2216 -0.0677
vn -0.9152 -0.3722 0.1547
vn 0.9217 -0.3879 -0.0000
vn 0.3296 0.8847 0.3296
vn 0.4283 0.8782 0.2127
vn 0.2127 0.8782 0.4283
vn -0.0908 -0.3300 -0.9396
vn 0.1588 -0.1599 -0.9743
vn 0.0677 -0.2216 -0.9728
vn -0.1547 -0.3722 -0.9152
vn 0.3215 0.8912 -0.3199
vn 0.2432 0.9390 -0.2432
vn 0.3199 0.8912 -0.3215
vn 0.3887 0.8353 -0.3887
vn 0.0908 -0.3300 0.9396
vn -0.1588 -0.1599 0.9743
vn -0.0677 -0.2216 0.9728
vn 0.1547 -0.3722 0.9152
vn 1.0000 -0.0000 -0.0000
vn -0.0000 -0.0000 -1.0000
vn -1.0000 -0.0000 -0.0000
vn -0.0000 -0.0000 1.0000
vn -0.0000 -0.3879 -0.9217
vn -0.0000 -0.3879 0.9217
vn -0.0909 -0.3300 -0.9396
vn 0.0909 -0.3300 0.9396
vt 0.750000 0.625000
vt 0.875000 0.625000
vt 0.875000 0.750000
vt 0.750000 0.750000
vt 0.375000 0.875000
vt 0.625000 0.875000
vt 0.625000 1.000000
vt 0.375000 1.000000
vt 0.375000 0.125000
vt 0.625000 0.125000
vt 0.625000 0.250000
vt 0.375000 0.250000
vt 0.250000 0.625000
vt 0.375000 0.625000
vt 0.375000 0.750000
vt 0.250000 0.750000
vt 0.625000 0.625000
vt 0.625000 0.750000
vt 0.375000 0.375000
vt 0.625000 0.375000
vt 0.625000 0.500000
vt 0.375000 0.500000
vt 0.250000 0.500000
vt 0.375000 0.000000
vt 0.625000 0.000000
vt 0.750000 0.500000
vt 0.875000 0.500000
vt 0.125000 0.500000
vt 0.125000 0.625000
vt 0.125000 0.750000
s 0
usemtl Material.001
f 57/1/1 19/3/1 32/2/1
f 57/1/1 43/4/1 19/3/1
s 1
f 48/5/2 20/7/2 45/6/2
f 48/5/2 23/8/3 20/7/2
f 28/9/4 15/11/4 34/10/4
f 28/9/4 18/12/5 15/11/4
f 56/13/6 12/15/6 38/14/7
f 56/13/6 49/16/7 12/15/6
f 35/14/8 9/18/8 30/17/8
f 35/14/8 11/15/9 9/18/8
f 39/19/10 2/21/10 51/20/10
f 39/19/10 4/22/11 2/21/10
f 5/22/12 31/17/13 3/21/13
f 5/22/12 36/14/12 31/17/13
f 42/23/14 37/14/14 6/22/14
f 42/23/14 55/13/14 37/14/14
f 24/24/15 33/10/16 21/25/16
f 24/24/15 27/9/15 33/10/16
s 0
f 50/26/1 32/2/1 13/27/1
f 50/26/1 57/1/1 32/2/1
f 1/21/1 57/1/1 50/26/1
f 1/21/1 29/17/1 57/1/1
s 1
f 16/28/17 53/13/17 40/23/18
f 16/28/17 25/29/18 53/13/17
f 17/12/19 52/20/20 14/11/20
f 17/12/19 41/19/19 52/20/20
f 26/29/21 47/16/21 54/13/22
f 26/29/21 22/30/22 47/16/21
f 10/15/23 44/6/24 8/18/24
f 10/15/23 46/5/23 44/6/24
s 0
f 29/17/1 43/4/1 57/1/1
f 29/17/1 7/18/1 43/4/1
f 95/10/25 122/25/25 82/25/25
f 95/10/25 130/10/25 122/25/25
s 1
f 107/5/26 80/7/28 105/6/27
f 107/5/26 83/8/29 80/7/28
f 88/9/30 74/11/32 93/10/31
f 88/9/30 78/12/33 74/11/32
f 117/13/34 71/15/34 99/14/35
f 117/13/34 110/16/36 71/15/34
f 97/14/37 66/18/39 91/17/38
f 97/14/37 69/15/40 66/18/39
f 102/19/41 61/21/43 113/20/42
f 102/19/41 63/22/44 61/21/43
f 62/22/45 90/17/47 59/21/46
f 62/22/45 96/14/48 90/17/47
f 103/23/49 98/14/51 64/22/50
f 103/23/49 116/13/52 98/14/51
f 85/24/53 94/10/55 81/25/54
f 85/24/53 89/9/56 94/10/55
s 0
f 67/18/57 124/17/57 92/17/57
f 67/18/57 128/18/57 124/17/57
f 75/11/25 130/10/25 95/10/25
f 75/11/25 134/11/25 130/10/25
s 1
f 77/28/58 114/13/58 101/23/59
f 77/28/58 86/29/60 114/13/58
f 76/12/61 112/20/63 73/11/62
f 76/12/61 100/19/64 112/20/63
f 87/29/65 108/16/67 115/13/66
f 87/29/65 84/30/68 108/16/67
f 70/15/69 106/6/71 68/18/70
f 70/15/69 109/5/72 106/6/71
s 0
f 92/17/57 140/21/57 60/21/57
f 92/17/57 124/17/57 140/21/57
f 129/18/73 148/17/73 125/17/73
f 129/18/73 151/18/73 148/17/73
f 138/21/74 157/20/74 136/20/74
f 138/21/74 159/21/74 157/20/74
f 131/10/75 146/25/75 123/25/75
f 131/10/75 153/10/75 146/25/75
f 118/6/76 149/18/76 126/18/76
f 118/6/76 142/6/76 149/18/76
f 111/20/77 133/11/77 72/11/77
f 111/20/77 137/20/77 133/11/77
f 104/6/78 127/18/78 65/18/78
f 104/6/78 119/6/78 127/18/78
f 58/21/77 137/20/77 111/20/77
f 58/21/77 139/21/77 137/20/77
f 79/7/78 119/6/78 104/6/78
f 79/7/78 121/7/78 119/6/78
f 162/1/1 145/3/1 152/2/1
f 162/1/1 143/4/1 145/3/1
f 158/26/1 152/2/1 155/27/1
f 158/26/1 162/1/1 152/2/1
f 160/21/1 162/1/1 158/26/1
f 160/21/1 147/17/1 162/1/1
f 147/17/1 143/4/1 162/1/1
f 147/17/1 150/18/1 143/4/1
f 136/20/74 154/11/74 132/11/74
f 136/20/74 157/20/74 154/11/74
f 125/17/73 161/21/73 141/21/73
f 125/17/73 148/17/73 161/21/73
f 135/11/75 153/10/75 131/10/75
f 135/11/75 156/11/75 153/10/75
f 120/7/76 142/6/76 118/6/76
f 120/7/76 144/7/76 142/6/76
f 219/1/1 181/3/1 194/2/1
f 219/1/1 205/4/1 181/3/1
s 1
f 208/5/26 182/7/28 206/6/27
f 208/5/26 184/8/29 182/7/28
f 189/9/30 177/11/32 195/10/31
f 189/9/30 180/12/33 177/11/32
f 218/13/34 174/15/34 200/14/35
f 218/13/34 211/16/36 174/15/34
f 198/14/37 170/18/39 193/17/38
f 198/14/37 172/15/40 170/18/39
f 203/19/41 165/21/43 214/20/42
f 203/19/41 167/22/44 165/21/43
f 166/22/45 192/17/47 164/21/46
f 166/22/45 197/14/48 192/17/47
f 204/23/49 199/14/51 168/22/50
f 204/23/49 217/13/52 199/14/51
f 186/24/53 196/10/55 183/25/54
f 186/24/53 190/9/56 196/10/55
s 0
f 212/26/1 194/2/1 175/27/1
f 212/26/1 219/1/1 194/2/1
f 163/21/1 219/1/1 212/26/1
f 163/21/1 191/17/1 219/1/1
s 1
f 179/28/58 215/13/58 202/23/59
f 179/28/58 187/29/60 215/13/58
f 178/12/61 213/20/63 176/11/62
f 178/12/61 201/19/64 213/20/63
f 188/29/65 209/16/67 216/13/66
f 188/29/65 185/30/68 209/16/67
f 173/15/69 207/6/71 171/18/70
f 173/15/69 210/5/72 207/6/71
s 0
f 191/17/1 205/4/1 219/1/1
f 191/17/1 169/18/1 205/4/1
f 276/1/1 238/3/1 251/2/1
f 276/1/1 262/4/1 238/3/1
s 1
f 265/5/26 239/7/28 263/6/27
f 265/5/26 241/8/29 239/7/28
f 246/9/30 234/11/32 252/10/31
f 246/9/30 237/12/33 234/11/32
f 275/13/34 231/15/34 257/14/35
f 275/13/34 268/16/36 231/15/34
f 255/14/37 227/18/39 250/17/38
f 255/14/37 229/15/40 227/18/39
f 260/19/41 222/21/43 271/20/42
f 260/19/41 224/22/44 222/21/43
f 223/22/45 249/17/47 221/21/46
f 223/22/45 254/14/48 249/17/47
f 261/23/49 256/14/51 225/22/50
f 261/23/49 274/13/52 256/14/51
f 243/24/53 253/10/55 240/25/54
f 243/24/53 247/9/56 253/10/55
s 0
f 269/26/1 251/2/1 232/27/1
f 269/26/1 276/1/1 251/2/1
f 220/21/1 276/1/1 269/26/1
f 220/21/1 248/17/1 276/1/1
s 1
f 236/28/58 272/13/58 259/23/59
f 236/28/58 244/29/60 272/13/58
f 235/12/79 270/20/63 233/11/62
f 235/12/79 258/19/64 270/20/63
f 245/29/65 266/16/67 273/13/66
f 245/29/65 242/30/68 266/16/67
f 230/15/80 264/6/71 228/18/70
f 230/15/80 267/5/72 264/6/71
s 0
f 248/17/1 262/4/1 276/1/1
f 248/17/1 226/18/1 262/4/1
f 333/1/1 295/3/1 308/2/1
f 333/1/1 319/4/1 295/3/1
s 1
f 322/5/26 296/7/28 320/6/27
f 322/5/26 298/8/29 296/7/28
f 303/9/30 291/11/32 309/10/31
f 303/9/30 294/12/33 291/11/32
f 332/13/34 288/15/34 314/14/35
f 332/13/34 325/16/36 288/15/34
f 312/14/37 284/18/39 307/17/38
f 312/14/37 286/15/40 284/18/39
f 317/19/41 279/21/43 328/20/42
f 317/19/41 281/22/44 279/21/43
f 280/22/45 306/17/47 278/21/46
f 280/22/45 311/14/48 306/17/47
f 318/23/49 313/14/51 282/22/50
f 318/23/49 331/13/52 313/14/51
f 300/24/53 310/10/55 297/25/54
f 300/24/53 304/9/56 310/10/55
s 0
f 326/26/1 308/2/1 289/27/1
f 326/26/1 333/1/1 308/2/1
f 277/21/1 333/1/1 326/26/1
f 277/21/1 305/17/1 333/1/1
s 1
f 293/28/58 329/13/58 316/23/59
f 293/28/58 301/29/60 329/13/58
f 292/12/61 327/20/63 290/11/62
f 292/12/61 315/19/64 327/20/63
f 302/29/65 323/16/67 330/13/66
f 302/29/65 299/30/68 323/16/67
f 287/15/69 321/6/71 285/18/70
f 287/15/69 324/5/72 321/6/71
s 0
f 305/17/1 319/4/1 333/1/1
f 305/17/1 283/18/1 319/4/1
f 390/1/1 352/3/1 365/2/1
f 390/1/1 376/4/1 352/3/1
s 1
f 379/5/26 353/7/28 377/6/27
f 379/5/26 355/8/29 353/7/28
f 360/9/30 348/11/32 366/10/31
f 360/9/30 351/12/33 348/11/32
f 389/13/34 345/15/34 371/14/35
f 389/13/34 382/16/36 345/15/34
f 369/14/37 341/18/39 364/17/38
f 369/14/37 343/15/40 341/18/39
f 374/19/41 336/21/43 385/20/42
f 374/19/41 338/22/44 336/21/43
f 337/22/45 363/17/47 335/21/46
f 337/22/45 368/14/48 363/17/47
f 375/23/49 370/14/51 339/22/50
f 375/23/49 388/13/52 370/14/51
f 357/24/53 367/10/55 354/25/54
f 357/24/53 361/9/56 367/10/55
s 0
f 383/26/1 365/2/1 346/27/1
f 383/26/1 390/1/1 365/2/1
f 334/21/1 390/1/1 383/26/1
f 334/21/1 362/17/1 390/1/1
s 1
f 350/28/58 386/13/58 373/23/59
f 350/28/58 358/29/60 386/13/58
f 349/12/61 384/20/63 347/11/62
f 349/12/61 372/19/64 384/20/63
f 359/29/65 380/16/67 387/13/66
f 359/29/65 356/30/68 380/16/67
f 344/15/69 378/6/71 342/18/70
f 344/15/69 381/5/72 378/6/71
s 0
f 362/17/1 376/4/1 390/1/1
f 362/17/1 340/18/1 376/4/1
f 447/1/1 409/3/1 422/2/1
f 447/1/1 433/4/1 409/3/1
s 1
f 436/5/26 410/7/28 434/6/27
f 436/5/26 412/8/29 410/7/28
f 417/9/30 405/11/32 423/10/31
f 417/9/30 408/12/33 405/11/32
f 446/13/34 402/15/34 428/14/35
f 446/13/34 439/16/36 402/15/34
f 426/14/37 398/18/39 421/17/38
f 426/14/37 400/15/40 398/18/39
f 431/19/41 393/21/43 442/20/42
f 431/19/41 395/22/44 393/21/43
f 394/22/45 420/17/47 392/21/46
f 394/22/45 425/14/48 420/17/47
f 432/23/49 427/14/51 396/22/50
f 432/23/49 445/13/52 427/14/51
f 414/24/53 424/10/55 411/25/54
f 414/24/53 418/9/56 424/10/55
s 0
f 440/26/1 422/2/1 403/27/1
f 440/26/1 447/1/1 422/2/1
f 391/21/1 447/1/1 440/26/1
f 391/21/1 419/17/1 447/1/1
s 1
f 407/28/58 443/13/58 430/23/59
f 407/28/58 415/29/60 443/13/58
f 406/12/79 441/20/63 404/11/62
f 406/12/79 429/19/64 441/20/63
f 416/29/65 437/16/67 444/13/66
f 416/29/65 413/30/68 437/16/67
f 401/15/80 435/6/71 399/18/70
f 401/15/80 438/5/72 435/6/71
s 0
f 419/17/1 433/4/1 447/1/1
f 419/17/1 397/18/1 433/4/1
f 504/1/1 466/3/1 479/2/1
f 504/1/1 490/4/1 466/3/1
s 1
f 493/5/26 467/7/28 491/6/27
f 493/5/26 469/8/29 467/7/28
f 474/9/30 462/11/32 480/10/31
f 474/9/30 465/12/33 462/11/32
f 503/13/34 459/15/34 485/14/35
f 503/13/34 496/16/36 459/15/34
f 483/14/37 455/18/39 478/17/38
f 483/14/37 457/15/40 455/18/39
f 488/19/41 450/21/43 499/20/42
f 488/19/41 452/22/44 450/21/43
f 451/22/45 477/17/47 449/21/46
f 451/22/45 482/14/48 477/17/47
f 489/23/49 484/14/51 453/22/50
f 489/23/49 502/13/52 484/14/51
f 471/24/53 481/10/55 468/25/54
f 471/24/53 475/9/56 481/10/55
s 0
f 497/26/1 479/2/1 460/27/1
f 497/26/1 504/1/1 479/2/1
f 448/21/1 504/1/1 497/26/1
f 448/21/1 476/17/1 504/1/1
s 1
f 464/28/58 500/13/58 487/23/59
f 464/28/58 472/29/60 500/13/58
f 463/12/61 498/20/63 461/11/62
f 463/12/61 486/19/64 498/20/63
f 473/29/65 494/16/67 501/13/66
f 473/29/65 470/30/68 494/16/67
f 458/15/69 492/6/71 456/18/70
f 458/15/69 495/5/72 492/6/71
s 0
f 476/17/1 490/4/1 504/1/1
f 476/17/1 454/18/1 490/4/1
