# Blender 4.4.3
# www.blender.org
mtllib Wheat.mtl
o Wheat
v 0.022725 0.760813 -0.022725
v 0.042424 0.830895 -0.042424
v 0.022725 0.760813 0.022725
v 0.042424 0.830895 0.042424
v -0.022725 0.760813 -0.022725
v -0.042424 0.830895 -0.042424
v -0.022725 0.760813 0.022725
v -0.042424 0.830895 0.042424
v -0.040169 0.811534 0.000000
v 0.022725 0.760813 0.000000
v -0.022725 0.760813 0.000000
v 0.040169 0.811534 0.000000
v 0.000000 0.811534 -0.040169
v 0.000000 0.760813 0.022725
v 0.000000 0.811534 0.040169
v 0.000000 0.760813 -0.022725
v 0.000000 0.798682 0.000000
v 0.000000 0.760813 0.000000
v 0.022725 0.499158 -0.022725
v 0.062200 0.569240 -0.062200
v 0.022725 0.499158 0.022725
v 0.062200 0.569240 0.062200
v -0.022725 0.499158 -0.022725
v -0.062200 0.569240 -0.062200
v -0.022725 0.499158 0.022725
v -0.062200 0.569240 0.062200
v -0.040169 0.549879 0.000000
v 0.022725 0.499158 0.000000
v -0.022725 0.499158 0.000000
v 0.040169 0.549879 0.000000
v 0.000000 0.549879 -0.040169
v 0.000000 0.499158 0.022725
v 0.000000 0.549879 0.040169
v 0.000000 0.499158 -0.022725
v 0.000000 0.537027 0.000000
v 0.000000 0.474014 0.012144
v -0.012144 0.474014 0.012144
v 0.012144 0.474014 -0.000000
v 0.012144 0.474014 0.012144
v -0.012144 0.474014 -0.000000
v -0.012144 0.474014 -0.012144
v 0.000000 0.474014 -0.012144
v 0.012144 0.474014 -0.012144
v 0.000000 -0.000275 0.012144
v -0.012144 -0.000275 0.012144
v 0.012144 -0.000275 -0.000000
v 0.012144 -0.000275 0.012144
v -0.012144 -0.000275 -0.000000
v -0.012144 -0.000275 -0.012144
v 0.000000 -0.000275 -0.012144
v 0.012144 -0.000275 -0.012144
v 0.000000 -0.000275 -0.000000
v 0.022725 0.533739 -0.022725
v 0.062200 0.603821 -0.062200
v 0.022725 0.533739 0.022725
v 0.062200 0.603821 0.062200
v -0.022725 0.533739 -0.022725
v -0.062200 0.603821 -0.062200
v -0.022725 0.533739 0.022725
v -0.062200 0.603821 0.062200
v -0.040169 0.584460 0.000000
v 0.022725 0.533739 0.000000
v -0.022725 0.533739 0.000000
v 0.040169 0.584460 0.000000
v 0.000000 0.584460 -0.040169
v 0.000000 0.533739 0.022725
v 0.000000 0.584460 0.040169
v 0.000000 0.533739 -0.022725
v 0.000000 0.571608 0.000000
v 0.000000 0.533739 0.000000
v 0.022725 0.575803 -0.022725
v 0.062200 0.645886 -0.062200
v 0.022725 0.575803 0.022725
v 0.062200 0.645886 0.062200
v -0.022725 0.575803 -0.022725
v -0.062200 0.645886 -0.062200
v -0.022725 0.575803 0.022725
v -0.062200 0.645886 0.062200
v -0.040169 0.626525 0.000000
v 0.022725 0.575803 0.000000
v -0.022725 0.575803 0.000000
v 0.040169 0.626525 0.000000
v 0.000000 0.626525 -0.040169
v 0.000000 0.575803 0.022725
v 0.000000 0.626525 0.040169
v 0.000000 0.575803 -0.022725
v 0.000000 0.613673 0.000000
v 0.000000 0.575803 0.000000
v 0.022725 0.610384 -0.022725
v 0.062200 0.680467 -0.062200
v 0.022725 0.610384 0.022725
v 0.062200 0.680467 0.062200
v -0.022725 0.610384 -0.022725
v -0.062200 0.680467 -0.062200
v -0.022725 0.610384 0.022725
v -0.062200 0.680467 0.062200
v -0.040169 0.661106 0.000000
v 0.022725 0.610384 0.000000
v -0.022725 0.610384 0.000000
v 0.040169 0.661106 0.000000
v 0.000000 0.661106 -0.040169
v 0.000000 0.610384 0.022725
v 0.000000 0.661106 0.040169
v 0.000000 0.610384 -0.022725
v 0.000000 0.648254 0.000000
v 0.000000 0.610384 0.000000
v 0.022725 0.638737 -0.022725
v 0.062200 0.708820 -0.062200
v 0.022725 0.638737 0.022725
v 0.062200 0.708820 0.062200
v -0.022725 0.638737 -0.022725
v -0.062200 0.708820 -0.062200
v -0.022725 0.638737 0.022725
v -0.062200 0.708820 0.062200
v -0.040169 0.689458 0.000000
v 0.022725 0.638737 0.000000
v -0.022725 0.638737 0.000000
v 0.040169 0.689458 0.000000
v 0.000000 0.689458 -0.040169
v 0.000000 0.638737 0.022725
v 0.000000 0.689458 0.040169
v 0.000000 0.638737 -0.022725
v 0.000000 0.676606 0.000000
v 0.000000 0.638737 0.000000
v 0.022725 0.680802 -0.022725
v 0.062200 0.750884 -0.062200
v 0.022725 0.680802 0.022725
v 0.062200 0.750884 0.062200
v -0.022725 0.680802 -0.022725
v -0.062200 0.750884 -0.062200
v -0.022725 0.680802 0.022725
v -0.062200 0.750884 0.062200
v -0.040169 0.731523 0.000000
v 0.022725 0.680802 0.000000
v -0.022725 0.680802 0.000000
v 0.040169 0.731523 0.000000
v 0.000000 0.731523 -0.040169
v 0.000000 0.680802 0.022725
v 0.000000 0.731523 0.040169
v 0.000000 0.680802 -0.022725
v 0.000000 0.718671 0.000000
v 0.000000 0.680802 0.000000
v 0.022725 0.715383 -0.022725
v 0.062200 0.785465 -0.062200
v 0.022725 0.715383 0.022725
v 0.062200 0.785465 0.062200
v -0.022725 0.715383 -0.022725
v -0.062200 0.785465 -0.062200
v -0.022725 0.715383 0.022725
v -0.062200 0.785465 0.062200
v -0.040169 0.766104 0.000000
v 0.022725 0.715383 0.000000
v -0.022725 0.715383 0.000000
v 0.040169 0.766104 0.000000
v 0.000000 0.766104 -0.040169
v 0.000000 0.715383 0.022725
v 0.000000 0.766104 0.040169
v 0.000000 0.715383 -0.022725
v 0.000000 0.753252 0.000000
v 0.000000 0.715383 0.000000
vn -0.0000 -1.0000 -0.0000
vn -0.0568 -0.3019 0.9517
vn -0.9517 -0.3019 -0.0568
vn -0.3345 0.8810 -0.3345
vn 0.9517 -0.3019 0.0568
vn 0.0568 -0.3019 -0.9517
vn 0.9517 -0.3019 -0.0568
vn -0.3345 0.8810 0.3345
vn -0.9517 -0.3019 0.0568
vn 0.3345 0.8810 0.3345
vn -0.0568 -0.3019 -0.9517
vn 0.3345 0.8810 -0.3345
vn 0.0568 -0.3019 0.9517
vn -0.9217 -0.3879 -0.0000
vn 0.1498 -0.3809 0.9124
vn -0.9124 -0.3809 0.1498
vn -0.2432 0.9390 -0.2432
vn 0.9124 -0.3809 -0.1498
vn -0.1498 -0.3809 -0.9124
vn 0.9124 -0.3809 0.1498
vn -0.2432 0.9390 0.2432
vn -0.9124 -0.3809 -0.1498
vn 0.9217 -0.3879 -0.0000
vn 0.2432 0.9390 0.2432
vn 0.1498 -0.3809 -0.9124
vn 0.2432 0.9390 -0.2432
vn -0.1498 -0.3809 0.9124
vn 1.0000 -0.0000 -0.0000
vn -0.0000 -0.0000 -1.0000
vn -1.0000 -0.0000 -0.0000
vn -0.0000 -0.0000 1.0000
vn -0.0000 -0.3879 -0.9217
vn -0.0000 -0.3879 0.9217
vt 0.750000 0.625000
vt 0.875000 0.625000
vt 0.875000 0.750000
vt 0.750000 0.750000
vt 0.375000 0.875000
vt 0.625000 0.875000
vt 0.625000 1.000000
vt 0.375000 1.000000
vt 0.375000 0.125000
vt 0.625000 0.125000
vt 0.625000 0.250000
vt 0.375000 0.250000
vt 0.250000 0.625000
vt 0.375000 0.625000
vt 0.375000 0.750000
vt 0.250000 0.750000
vt 0.625000 0.625000
vt 0.625000 0.750000
vt 0.375000 0.375000
vt 0.625000 0.375000
vt 0.625000 0.500000
vt 0.375000 0.500000
vt 0.250000 0.500000
vt 0.375000 0.000000
vt 0.625000 0.000000
vt 0.750000 0.500000
vt 0.875000 0.500000
vt 0.125000 0.500000
vt 0.125000 0.625000
vt 0.125000 0.750000
s 0
usemtl Material
f 18/1/1 14/4/1 7/3/1 11/2/1
f 15/5/2 8/8/2 7/7/2 14/6/2
f 9/9/3 6/12/3 5/11/3 11/10/3
f 17/13/4 15/16/4 4/15/4 12/14/4
f 12/14/5 4/15/5 3/18/5 10/17/5
f 13/19/6 2/22/6 1/21/6 16/20/6
f 2/22/7 12/14/7 10/17/7 1/21/7
f 13/23/8 17/13/8 12/14/8 2/22/8
f 8/24/9 9/9/9 11/10/9 7/25/9
f 16/26/1 18/1/1 11/2/1 5/27/1
f 1/21/1 10/17/1 18/1/1 16/26/1
f 6/28/10 9/29/10 17/13/10 13/23/10
f 6/12/11 13/19/11 16/20/11 5/11/11
f 9/29/12 8/30/12 15/16/12 17/13/12
f 4/15/13 15/5/13 14/6/13 3/18/13
f 10/17/1 3/18/1 14/4/1 18/1/1
f 29/10/14 40/10/14 37/25/14 25/25/14
f 33/5/15 26/8/15 25/7/15 32/6/15
f 27/9/16 24/12/16 23/11/16 29/10/16
f 35/13/17 33/16/17 22/15/17 30/14/17
f 30/14/18 22/15/18 21/18/18 28/17/18
f 31/19/19 20/22/19 19/21/19 34/20/19
f 20/22/20 30/14/20 28/17/20 19/21/20
f 31/23/21 35/13/21 30/14/21 20/22/21
f 26/24/22 27/9/22 29/10/22 25/25/22
f 21/18/23 39/18/23 38/17/23 28/17/23
f 23/11/14 41/11/14 40/10/14 29/10/14
f 24/28/24 27/29/24 35/13/24 31/23/24
f 24/12/25 31/19/25 34/20/25 23/11/25
f 27/29/26 26/30/26 33/16/26 35/13/26
f 22/15/27 33/5/27 32/6/27 21/18/27
f 28/17/23 38/17/23 43/21/23 19/21/23
f 39/18/28 47/18/28 46/17/28 38/17/28
f 43/21/29 51/21/29 50/20/29 42/20/29
f 40/10/30 48/10/30 45/25/30 37/25/30
f 36/6/31 44/6/31 47/18/31 39/18/31
f 34/20/32 42/20/32 41/11/32 23/11/32
f 32/6/33 36/6/33 39/18/33 21/18/33
f 19/21/32 43/21/32 42/20/32 34/20/32
f 25/7/33 37/7/33 36/6/33 32/6/33
f 52/1/1 44/4/1 45/3/1 48/2/1
f 50/26/1 52/1/1 48/2/1 49/27/1
f 51/21/1 46/17/1 52/1/1 50/26/1
f 46/17/1 47/18/1 44/4/1 52/1/1
f 42/20/29 50/20/29 49/11/29 41/11/29
f 38/17/28 46/17/28 51/21/28 43/21/28
f 41/11/30 49/11/30 48/10/30 40/10/30
f 37/7/31 45/7/31 44/6/31 36/6/31
f 70/1/1 66/4/1 59/3/1 63/2/1
f 67/5/15 60/8/15 59/7/15 66/6/15
f 61/9/16 58/12/16 57/11/16 63/10/16
f 69/13/17 67/16/17 56/15/17 64/14/17
f 64/14/18 56/15/18 55/18/18 62/17/18
f 65/19/19 54/22/19 53/21/19 68/20/19
f 54/22/20 64/14/20 62/17/20 53/21/20
f 65/23/21 69/13/21 64/14/21 54/22/21
f 60/24/22 61/9/22 63/10/22 59/25/22
f 68/26/1 70/1/1 63/2/1 57/27/1
f 53/21/1 62/17/1 70/1/1 68/26/1
f 58/28/24 61/29/24 69/13/24 65/23/24
f 58/12/25 65/19/25 68/20/25 57/11/25
f 61/29/26 60/30/26 67/16/26 69/13/26
f 56/15/27 67/5/27 66/6/27 55/18/27
f 62/17/1 55/18/1 66/4/1 70/1/1
f 88/1/1 84/4/1 77/3/1 81/2/1
f 85/5/15 78/8/15 77/7/15 84/6/15
f 79/9/16 76/12/16 75/11/16 81/10/16
f 87/13/17 85/16/17 74/15/17 82/14/17
f 82/14/18 74/15/18 73/18/18 80/17/18
f 83/19/19 72/22/19 71/21/19 86/20/19
f 72/22/20 82/14/20 80/17/20 71/21/20
f 83/23/21 87/13/21 82/14/21 72/22/21
f 78/24/22 79/9/22 81/10/22 77/25/22
f 86/26/1 88/1/1 81/2/1 75/27/1
f 71/21/1 80/17/1 88/1/1 86/26/1
f 76/28/24 79/29/24 87/13/24 83/23/24
f 76/12/25 83/19/25 86/20/25 75/11/25
f 79/29/26 78/30/26 85/16/26 87/13/26
f 74/15/27 85/5/27 84/6/27 73/18/27
f 80/17/1 73/18/1 84/4/1 88/1/1
f 106/1/1 102/4/1 95/3/1 99/2/1
f 103/5/15 96/8/15 95/7/15 102/6/15
f 97/9/16 94/12/16 93/11/16 99/10/16
f 105/13/17 103/16/17 92/15/17 100/14/17
f 100/14/18 92/15/18 91/18/18 98/17/18
f 101/19/19 90/22/19 89/21/19 104/20/19
f 90/22/20 100/14/20 98/17/20 89/21/20
f 101/23/21 105/13/21 100/14/21 90/22/21
f 96/24/22 97/9/22 99/10/22 95/25/22
f 104/26/1 106/1/1 99/2/1 93/27/1
f 89/21/1 98/17/1 106/1/1 104/26/1
f 94/28/24 97/29/24 105/13/24 101/23/24
f 94/12/25 101/19/25 104/20/25 93/11/25
f 97/29/26 96/30/26 103/16/26 105/13/26
f 92/15/27 103/5/27 102/6/27 91/18/27
f 98/17/1 91/18/1 102/4/1 106/1/1
f 124/1/1 120/4/1 113/3/1 117/2/1
f 121/5/15 114/8/15 113/7/15 120/6/15
f 115/9/16 112/12/16 111/11/16 117/10/16
f 123/13/17 121/16/17 110/15/17 118/14/17
f 118/14/18 110/15/18 109/18/18 116/17/18
f 119/19/19 108/22/19 107/21/19 122/20/19
f 108/22/20 118/14/20 116/17/20 107/21/20
f 119/23/21 123/13/21 118/14/21 108/22/21
f 114/24/22 115/9/22 117/10/22 113/25/22
f 122/26/1 124/1/1 117/2/1 111/27/1
f 107/21/1 116/17/1 124/1/1 122/26/1
f 112/28/24 115/29/24 123/13/24 119/23/24
f 112/12/25 119/19/25 122/20/25 111/11/25
f 115/29/26 114/30/26 121/16/26 123/13/26
f 110/15/27 121/5/27 120/6/27 109/18/27
f 116/17/1 109/18/1 120/4/1 124/1/1
f 142/1/1 138/4/1 131/3/1 135/2/1
f 139/5/15 132/8/15 131/7/15 138/6/15
f 133/9/16 130/12/16 129/11/16 135/10/16
f 141/13/17 139/16/17 128/15/17 136/14/17
f 136/14/18 128/15/18 127/18/18 134/17/18
f 137/19/19 126/22/19 125/21/19 140/20/19
f 126/22/20 136/14/20 134/17/20 125/21/20
f 137/23/21 141/13/21 136/14/21 126/22/21
f 132/24/22 133/9/22 135/10/22 131/25/22
f 140/26/1 142/1/1 135/2/1 129/27/1
f 125/21/1 134/17/1 142/1/1 140/26/1
f 130/28/24 133/29/24 141/13/24 137/23/24
f 130/12/25 137/19/25 140/20/25 129/11/25
f 133/29/26 132/30/26 139/16/26 141/13/26
f 128/15/27 139/5/27 138/6/27 127/18/27
f 134/17/1 127/18/1 138/4/1 142/1/1
f 160/1/1 156/4/1 149/3/1 153/2/1
f 157/5/15 150/8/15 149/7/15 156/6/15
f 151/9/16 148/12/16 147/11/16 153/10/16
f 159/13/17 157/16/17 146/15/17 154/14/17
f 154/14/18 146/15/18 145/18/18 152/17/18
f 155/19/19 144/22/19 143/21/19 158/20/19
f 144/22/20 154/14/20 152/17/20 143/21/20
f 155/23/21 159/13/21 154/14/21 144/22/21
f 150/24/22 151/9/22 153/10/22 149/25/22
f 158/26/1 160/1/1 153/2/1 147/27/1
f 143/21/1 152/17/1 160/1/1 158/26/1
f 148/28/24 151/29/24 159/13/24 155/23/24
f 148/12/25 155/19/25 158/20/25 147/11/25
f 151/29/26 150/30/26 157/16/26 159/13/26
f 146/15/27 157/5/27 156/6/27 145/18/27
f 152/17/1 145/18/1 156/4/1 160/1/1
